<?xml version="1.0" encoding="utf-8"?>
<!-- Generator: Adobe Illustrator 20.0.0, SVG Export Plug-In . SVG Version: 6.00 Build 0)  -->
<svg version="1.1" id="Calque_1" xmlns="http://www.w3.org/2000/svg" xmlns:xlink="http://www.w3.org/1999/xlink" x="0px" y="0px"
	 viewBox="0 0 799.3 261.3" enable-background="new 0 0 799.3 261.3" xml:space="preserve">
<path display="none" fill="#1CA5A4" d="M790.8,9.7c-3.4-3.4-7.9-5.3-12.7-5.3L21.2,3.7c0,0,0,0,0,0c-9.9,0-18,8-18,18L3,240.1
	c0,4.8,1.9,9.4,5.3,12.7c3.4,3.4,7.9,5.3,12.7,5.3l131.9,0.1l624.9,0.6c0,0,0,0,0,0c9.9,0,18-8,18-18l0.1-65.9L796,22.5
	C796,17.7,794.1,13.1,790.8,9.7z"/>
<g display="none">
	<linearGradient id="SVGID_1_" gradientUnits="userSpaceOnUse" x1="425.5369" y1="258.666" x2="425.5369" y2="27.7637">
		<stop  offset="6.060610e-03" style="stop-color:#1CA5A4"/>
		<stop  offset="0.2545" style="stop-color:#209090"/>
		<stop  offset="0.303" style="stop-color:#218D8D"/>
	</linearGradient>
	<path display="inline" fill="url(#SVGID_1_)" d="M119,258.2l660.3,0.5L665.1,74.9c0,0-31.7-15.3-33.6,1.8c-1.1-0.8-10.3,24-14,21.5
		l-19.2-30.2L572.5,79L565,91.7l-25.5-38L522,75.6l-18.9-28.8C493,51,491.3,77,480.7,74.6l-19.6-23.5c-15.8,4.6-30.8,6-30.8,6
		s-14.7,4.5-0.7,32.2c-14.7,11.5-15.8,18.2-15.8,18.2l-9.2-11.7c-31-0.3-28,5.4-28,5.4l-16.8-30.5c-22.6-2.7-9.5,18.2-9.5,18.2
		l-22.1,16.8c-3.5-1.4-13.4,36.1-13.4,36.1l-82.3-80.7l-16.2,22.7l-23.6-18.2c0,0-27.3,16.1-32.1,25.7c-3.5-6.6-8.5,12.4-13.4,15.5
		L81,27.8c-7.5,24.2,1.1,88.6-5.9,90c13.4,12.2-3.4,70.2-3.4,70.2"/>
</g>
<g>
	<path fill="#333333" d="M332.5,95.2h-22.7v-5.3c0-6.2,0.7-10.9,2.1-14.3c1.4-3.3,4.3-6.3,8.5-8.9c4.3-2.6,9.8-3.8,16.7-3.8
		c8.2,0,14.4,1.4,18.5,4.3c4.2,2.9,6.6,6.5,7.5,10.7c0.8,4.2,1.3,12.9,1.3,26.1v40h-23.5v-7.1c-1.5,2.8-3.4,5-5.7,6.4
		c-2.3,1.4-5.1,2.1-8.4,2.1c-4.2,0-8.1-1.2-11.7-3.6c-3.5-2.4-5.3-7.6-5.3-15.6v-6.5c0-6,0.9-10,2.8-12.2c1.9-2.2,6.5-4.7,14-7.6
		c7.9-3.1,12.2-5.2,12.8-6.3c0.6-1.1,0.8-3.3,0.8-6.6c0-4.2-0.3-6.9-0.9-8.1c-0.6-1.3-1.6-1.9-3.1-1.9c-1.6,0-2.7,0.5-3.1,1.6
		c-0.4,1.1-0.6,3.8-0.6,8.2V95.2z M340.1,106.1c-3.9,2.8-6.1,5.2-6.7,7.1c-0.6,1.9-0.9,4.7-0.9,8.3c0,4.1,0.3,6.8,0.8,8
		c0.5,1.2,1.6,1.8,3.2,1.8c1.5,0,2.5-0.5,3-1.4c0.5-0.9,0.7-3.4,0.7-7.4V106.1z"/>
	<path fill="#333333" d="M404.7,95.8v16.7h-31.8V95.8H404.7z"/>
	<path fill="#333333" d="M469.5,82.6h-25.2v-8.8c0-5.6-0.2-9-0.7-10.4c-0.5-1.4-1.6-2.1-3.4-2.1c-1.6,0-2.6,0.6-3.2,1.8
		c-0.6,1.2-0.8,4.3-0.8,9.2v46.6c0,4.4,0.3,7.2,0.8,8.6c0.6,1.4,1.7,2.1,3.4,2.1c1.8,0,3.1-0.8,3.7-2.3c0.7-1.6,1-4.6,1-9.1v-11.5
		h-5.1V91.9h29.5V144h-15.9l-2.3-7c-1.7,3-3.9,5.3-6.5,6.8c-2.6,1.5-5.7,2.3-9.3,2.3c-4.2,0-8.2-1-11.9-3.1
		c-3.7-2.1-6.5-4.6-8.4-7.6c-1.9-3-3.1-6.2-3.6-9.6c-0.5-3.3-0.7-8.3-0.7-15V81.8c0-9.3,0.5-16,1.5-20.2c1-4.2,3.9-8,8.6-11.6
		c4.7-3.5,10.9-5.2,18.4-5.2c7.4,0,13.5,1.5,18.4,4.6c4.9,3,8,6.7,9.5,10.8c1.5,4.2,2.2,10.2,2.2,18.2V82.6z"/>
	<path fill="#333333" d="M503.1,46.9v12.7h-24.9V46.9H503.1z M503.1,64.4V144h-24.9V64.4H503.1z"/>
	<path fill="#333333" d="M539.5,53.8v12.5h6.5v12.6h-6.5v42.6c0,5.2,0.3,8.2,0.8,8.8c0.5,0.6,2.8,0.9,6.7,0.9V144h-9.8
		c-5.5,0-9.4-0.2-11.8-0.7c-2.4-0.5-4.4-1.5-6.2-3.2c-1.8-1.7-2.9-3.6-3.4-5.7c-0.4-2.1-0.7-7.2-0.7-15.1V78.9h-5.2V66.3h5.2V53.8
		H539.5z"/>
	<path fill="#333333" d="M607.8,105.6h-31.3v17.2c0,3.6,0.3,5.9,0.8,7c0.5,1,1.5,1.6,3,1.6c1.8,0,3.1-0.7,3.7-2.1
		c0.6-1.4,0.9-4.1,0.9-8v-10.5h23v5.9c0,4.9-0.3,8.7-0.9,11.3c-0.6,2.6-2.1,5.5-4.3,8.5c-2.3,3-5.2,5.3-8.7,6.7
		c-3.5,1.5-7.9,2.2-13.1,2.2c-5.1,0-9.6-0.7-13.5-2.2c-3.9-1.5-7-3.5-9.1-6.1c-2.2-2.6-3.7-5.4-4.5-8.5c-0.8-3.1-1.3-7.6-1.3-13.5
		V91.9c0-7,0.9-12.4,2.8-16.5c1.9-4,5-7.1,9.2-9.2c4.3-2.1,9.2-3.2,14.7-3.2c6.8,0,12.4,1.3,16.8,3.9c4.4,2.6,7.5,6,9.3,10.3
		c1.8,4.3,2.7,10.3,2.7,18V105.6z M583.6,92.6v-5.8c0-4.1-0.2-6.8-0.7-8c-0.4-1.2-1.3-1.8-2.7-1.8c-1.7,0-2.7,0.5-3.1,1.5
		c-0.4,1-0.6,3.8-0.6,8.2v5.8H583.6z"/>
	<path fill="#333333" d="M666.6,89.8h-21.5v-4.3c0-3.7-0.2-6-0.6-7c-0.4-1-1.5-1.5-3.1-1.5c-1.4,0-2.4,0.5-3.1,1.4
		c-0.7,0.9-1,2.2-1,4c0,2.4,0.2,4.2,0.5,5.4c0.3,1.1,1.4,2.4,3.1,3.7c1.7,1.4,5.2,3.3,10.5,5.9c7,3.4,11.6,6.7,13.8,9.7
		c2.2,3,3.3,7.5,3.3,13.3c0,6.5-0.8,11.4-2.5,14.7c-1.7,3.3-4.5,5.8-8.4,7.6c-3.9,1.8-8.7,2.7-14.2,2.7c-6.2,0-11.4-1-15.8-2.9
		c-4.4-1.9-7.4-4.5-9-7.8c-1.6-3.3-2.5-8.2-2.5-14.9V116h21.5v5c0,4.3,0.3,7.1,0.8,8.3c0.5,1.3,1.6,1.9,3.2,1.9
		c1.7,0,2.9-0.4,3.6-1.3c0.7-0.9,1-2.7,1-5.4c0-3.8-0.4-6.2-1.3-7.1c-0.9-1-5.6-3.8-14.1-8.5c-7.1-4-11.4-7.6-13-10.9
		c-1.6-3.3-2.3-7.1-2.3-11.6c0-6.4,0.8-11,2.5-14.1c1.7-3,4.5-5.3,8.5-7c4-1.6,8.7-2.5,14-2.5c5.3,0,9.8,0.7,13.5,2
		c3.7,1.3,6.5,3.1,8.5,5.3c2,2.2,3.2,4.2,3.6,6.1c0.4,1.9,0.6,4.8,0.6,8.8V89.8z"/>
</g>
<g>
	<path fill="#333333" d="M593.9,176.3v7.4H587v-7.4H593.9z"/>
	<path fill="#333333" d="M614.4,168.7h-6.9v-2.8c0-1-0.1-1.6-0.2-2c-0.2-0.3-0.5-0.5-0.9-0.5c-0.4,0-0.7,0.2-0.9,0.5
		c-0.1,0.3-0.2,1-0.2,2v11.4c0,0.9,0.1,1.5,0.3,1.9c0.2,0.4,0.5,0.6,1,0.6c0.5,0,0.8-0.2,1-0.7c0.2-0.5,0.3-1.3,0.3-2.6v-2.9h6.6
		c0,1.9-0.1,3.4-0.2,4.4c-0.1,1-0.5,2-1.2,3c-0.7,1-1.6,1.8-2.7,2.3c-1.1,0.5-2.5,0.8-4.1,0.8c-2.1,0-3.7-0.4-4.9-1.1
		c-1.2-0.7-2.1-1.7-2.6-3c-0.5-1.3-0.8-3.1-0.8-5.5v-6.9c0-2.1,0.2-3.6,0.6-4.7c0.4-1,1.3-2,2.6-2.8c1.3-0.8,3-1.2,4.9-1.2
		c1.9,0,3.6,0.4,4.9,1.2c1.4,0.8,2.3,1.8,2.7,3.1C614.2,164.7,614.4,166.4,614.4,168.7z"/>
	<path fill="#333333" d="M634.4,168.1v5.9c0,2.2-0.1,3.8-0.3,4.8c-0.2,1-0.7,2-1.4,2.8c-0.7,0.9-1.6,1.5-2.8,2
		c-1.1,0.4-2.4,0.6-3.9,0.6c-1.6,0-3-0.2-4.1-0.5c-1.1-0.4-2-0.9-2.6-1.6c-0.6-0.7-1.1-1.6-1.3-2.6c-0.3-1-0.4-2.6-0.4-4.6v-6.2
		c0-2.2,0.2-4,0.7-5.3c0.5-1.3,1.4-2.3,2.6-3c1.3-0.8,2.9-1.2,4.8-1.2c1.7,0,3.1,0.3,4.3,0.7c1.2,0.5,2.1,1.1,2.7,1.9
		c0.6,0.8,1.1,1.6,1.3,2.4C634.3,165.1,634.4,166.4,634.4,168.1z M627,166.2c0-1.2-0.1-2-0.2-2.3c-0.1-0.3-0.4-0.5-0.9-0.5
		c-0.4,0-0.7,0.2-0.9,0.5c-0.1,0.3-0.2,1.1-0.2,2.3v10.9c0,1.1,0.1,1.9,0.2,2.2c0.1,0.3,0.4,0.5,0.9,0.5c0.4,0,0.7-0.2,0.9-0.5
		c0.1-0.3,0.2-1,0.2-2V166.2z"/>
	<path fill="#333333" d="M644.6,159.6l-0.1,2.3c0.6-0.9,1.3-1.6,2-2.1c0.8-0.5,1.7-0.7,2.7-0.7c2,0,3.5,0.9,4.6,2.7
		c0.6-0.9,1.3-1.6,2.1-2.1c0.8-0.5,1.6-0.7,2.6-0.7c1.3,0,2.3,0.3,3.1,0.9c0.8,0.6,1.3,1.4,1.6,2.2c0.2,0.9,0.3,2.3,0.3,4.3v17.2
		h-7.1V168c0-2.1-0.1-3.3-0.2-3.8c-0.1-0.5-0.5-0.7-1-0.7c-0.5,0-0.9,0.2-1,0.7c-0.2,0.5-0.2,1.8-0.2,3.8v15.8h-7.1v-15.4
		c0-2.4-0.1-3.8-0.2-4.3c-0.1-0.5-0.4-0.7-1-0.7c-0.3,0-0.6,0.1-0.8,0.4c-0.2,0.3-0.4,0.6-0.4,0.9c0,0.4,0,1.1,0,2.3v16.8h-7.1
		v-24.2H644.6z"/>
</g>
<path fill-rule="evenodd" clip-rule="evenodd" fill="#333333" d="M172.2,155.6l-0.2,34.9l-29.4,0.2l-0.4-45.6
	c0.2-9.3,2.6-14.3,9-20.7c11.6-11.4,23.1-22.8,34.7-34.2c2-2.1,5-3.5,8.7,0c11.5,11.4,23.1,22.8,34.6,34.2c6.4,6.4,8.7,11.4,9,20.7
	l-0.3,45.5l-29.4,0.1l-0.4-35H172.2z M123.2,137.8h10.8c1-6.9,5.1-12.9,10.6-18.4l38.7-38.1c3.7-4,10.2-4.1,13.8,0.1l39,38.5
	c5.3,5.4,9.2,11.5,10.2,18h11c9.1-0.3,9.8-8.6,6-12.8l-64.7-64.6c-5.5-6-11.7-5.1-16.7,0l-64.7,64.6
	C113.5,129.1,114.1,137.4,123.2,137.8z"/>
<rect x="214" y="61.2" fill-rule="evenodd" clip-rule="evenodd" fill="#333333" width="18.8" height="33.3"/>
<g>
	<path fill="#333333" d="M158.6,43.9l-5.5-5.5l4.8-6.2l-7.5-2l1.1-7.8l-7.4,2.1l-2.9-7.3l-5.4,5.6l-6.1-4.8l-1.9,7.6l-7.7-1.1
		l2.1,7.6l-7.2,3l5.5,5.5l-4.8,6.2l7.5,2l-1.1,7.8l7.4-2.1l2.9,7.3l5.4-5.6l6.1,4.8l1.9-7.6l7.7,1.1l-2.1-7.6L158.6,43.9z
		 M140.8,51.9c-6.7,2.3-14-1.3-16.3-8.1c-2.3-6.8,1.3-14.3,8-16.6c6.7-2.3,14,1.3,16.3,8.1C151.1,42.2,147.5,49.6,140.8,51.9z"/>
</g>
<polygon fill="#333333" points="84.1,187.9 84.1,162.5 114.1,162.5 90.3,93.3 100,93.3 81,27.8 61.1,92.7 70.6,92.7 42.6,161.5 
	71.7,161.5 71.7,187.9 "/>
<line fill="#333333" x1="313.9" y1="186.1" x2="533.9" y2="186.1"/>
<rect x="310.2" y="176.1" fill="#333333" width="271.7" height="8"/>
</svg>
