<?xml version="1.0" encoding="utf-8"?>
<!-- Generator: Adobe Illustrator 20.0.0, SVG Export Plug-In . SVG Version: 6.00 Build 0)  -->
<svg version="1.1" id="Calque_1" xmlns="http://www.w3.org/2000/svg" xmlns:xlink="http://www.w3.org/1999/xlink" x="0px" y="0px"
	 viewBox="0 0 457.9 130.2" enable-background="new 0 0 457.9 130.2" xml:space="preserve">
<g>
	<path fill="#333333" d="M61.2,78.3H39.5l-4.6,16.3h-19l24-77.6h22.1l23.9,77.6h-20L61.2,78.3z M50.3,39.4l-7.1,23.8h14.5l-7.1-23.8
		H50.3z"/>
	<path fill="#333333" d="M93.8,92.4c-2.9-2-4.5-4.9-4.5-7.9c-0.1-4.3,2.8-9.2,9.2-12.4v-0.2c-5.7-2.8-9.2-8.9-9.2-15.9
		c0-13.3,9.9-19.3,24.5-19.3c2.9,0,6.1,0.5,8.3,1.1h21.6V48h-8.3c1.1,1.9,2.3,4.4,2.3,8c0,13.4-10.1,19.1-23.9,19.1
		c-3.6,0-6-0.8-6.7-1c-0.6,0.7-0.9,1.5-1.2,2.2c-0.8,2.2-0.8,4.6,2.6,4.9l18.7,1.4c11.4,0.9,17.8,5.1,17.8,14.7
		c0,15.2-11.1,21.1-34.5,21.1c-17.4,0-24.9-4.8-24.9-14.7c0-4.9,2.5-8.2,8.4-11V92.4z M112.9,107.4c6.8,0,13.9-2,13.9-6.8
		c0-2.3-1.8-4.2-5.7-4.5l-19.3-1.1c-1.4,1.7-2.5,2.7-2.5,5.8C99.5,106.4,106.7,107.4,112.9,107.4z M122.1,56.1
		c0-5.8-3.4-8.2-8.4-8.2c-5.2,0-8.4,2.4-8.4,8.2c0,5.8,3.4,8,8.4,8C118.7,64.1,122.1,61.7,122.1,56.1z"/>
	<path fill="#333333" d="M143.9,66.3c0-18,7.7-29.5,28.2-29.5c20.5,0,28.2,11.4,28.2,29.5c0,18-7.7,29.5-28.2,29.5
		C151.6,95.7,143.9,84.3,143.9,66.3z M161.9,66.3c0,9.7,2.3,15.4,10.2,15.4c7.9,0,10.2-5.7,10.2-15.4c0-9.7-2.3-15.4-10.2-15.4
		C164.1,50.9,161.9,56.5,161.9,66.3z"/>
	<path fill="#333333" d="M221,94.6h-17V37.9h17V47h0.2c3.2-5.1,9.7-10.2,18.8-10.2v16c-7.3,0-14.5,1.2-19,3.4V94.6z"/>
	<path fill="#333333" d="M245.3,53l-2.5-13.5c8.3-1.7,17-2.7,24.1-2.7c14.8,0,23.1,3.5,23.1,19.1v38.6h-17v-5.7c-0.1,0-0.1,0-0.2,0
		c-4.6,5-9.3,6.8-16.2,6.8c-11.3,0-17.3-8-17.3-17.8c0-14.4,13.7-17.9,23.8-17.9h10V57c0-5.1-3.6-6.1-10.1-6.1
		C258.4,50.9,253.3,51.3,245.3,53z M273,70.1h-8.9c-4.8,0-7.8,1.8-7.8,6.3c0,4.4,3.7,6.2,7.2,6.2c3.7,0,7.6-1.5,9.5-2.9V70.1z"/>
</g>
<path fill="#333333" d="M348.2,54.6v-0.2c6.2-2.8,10.8-9.1,10.8-17c0-13-9.1-19.8-26.1-19.8h-39.6v15.9h5.7v45.3h-5.7v15.9h41.9
	c17,0,26.1-7.9,26.1-21.5C361.3,62.9,355.6,57.2,348.2,54.6z M319.4,33.4h11.3c4.5,0,6.8,2.8,6.8,6.8c0,4-2.3,6.8-6.8,6.8h-11.3
	V33.4z M331.8,78.7h-12.5V62.9h12.5c4.5,0,7.9,2.3,7.9,7.9S336.4,78.7,331.8,78.7z M387.4,15.3h-19.3v17h19.3V15.3z M426.9,75.3v4.5
	h-11.3v-0.2l25.5-27V37.9h-48.1v19.3h15.9v-4.5h9.1v0.2l-25,25.8h-5.5V37.9h-24.9v15.9h5.7v24.9h-5.7v15.9h80.3V75.3H426.9z"/>
</svg>
