<svg id="Calque_1" data-name="Calque 1" xmlns="http://www.w3.org/2000/svg" viewBox="0 0 78 48"><title>Plan de travail 1</title><path d="M21.12,13A1.92,1.92,0,0,1,20,14.87a2,2,0,0,1,1.61,2c0,1.46-1.19,2.24-3,2.24H14.81V11h3.64c1.63,0,2.67.8,2.67,2.07m-1.43.23c0-.66-.51-1-1.43-1H16.21v2.16h1.95c.92,0,1.53-.36,1.53-1.11m.45,3.42c0-.7-.54-1.1-1.67-1.1H16.21v2.22h2.36c1,0,1.56-.38,1.56-1.12"/><polygon points="30.01 12.25 25.42 12.25 25.42 14.36 29.49 14.36 29.49 15.63 25.42 15.63 25.42 17.81 30.07 17.81 30.07 19.09 23.99 19.09 23.99 10.97 30.01 10.97 30.01 12.25"/><polygon points="32.5 10.97 33.92 10.97 33.92 17.79 38.19 17.79 38.19 19.09 32.5 19.09 32.5 10.97"/><polygon points="40.6 10.97 42.03 10.97 42.03 17.79 46.29 17.79 46.29 19.09 40.6 19.09 40.6 10.97"/><polygon points="54.72 12.25 50.13 12.25 50.13 14.36 54.2 14.36 54.2 15.63 50.13 15.63 50.13 17.81 54.77 17.81 54.77 19.09 48.7 19.09 48.7 10.97 54.72 10.97 54.72 12.25"/><path d="M60.58,14.38c1.72.42,2.61,1,2.61,2.39,0,1.53-1.19,2.43-2.9,2.43a5,5,0,0,1-3.38-1.3l.86-1a3.74,3.74,0,0,0,2.56,1.05c.88,0,1.44-.41,1.44-1s-.32-.9-1.83-1.25c-1.73-.42-2.7-.93-2.7-2.43A2.48,2.48,0,0,1,60,10.86a4.5,4.5,0,0,1,2.94,1L62.18,13a3.68,3.68,0,0,0-2.2-.83c-.83,0-1.32.43-1.32,1s.37.92,1.92,1.29"/><path d="M23,26.08H21.53v-4H23a2,2,0,1,1,0,4m0-3.34h-.78v2.7H23a1.35,1.35,0,1,0,0-2.7"/><polygon points="29.38 22.73 27.13 22.73 27.13 23.76 29.12 23.76 29.12 24.39 27.13 24.39 27.13 25.45 29.41 25.45 29.41 26.08 26.43 26.08 26.43 22.1 29.38 22.1 29.38 22.73"/><polygon points="32.87 25.1 32.85 25.1 31.6 23.24 31.6 26.08 30.91 26.08 30.91 22.1 31.66 22.1 32.87 23.98 34.08 22.1 34.82 22.1 34.82 26.08 34.13 26.08 34.13 23.23 32.87 25.1"/><polygon points="39.25 22.73 37 22.73 37 23.76 38.99 23.76 38.99 24.39 37 24.39 37 25.45 39.28 25.45 39.28 26.08 36.3 26.08 36.3 22.1 39.25 22.1 39.25 22.73"/><path d="M43.9,24.36a1.59,1.59,0,0,1-1.71,1.78,1.57,1.57,0,0,1-1.69-1.75V22.1h.7v2.26c0,.74.38,1.14,1,1.14s1-.37,1-1.11V22.1h.7Z"/><path d="M47.87,26.08l-1-1.39H46v1.39h-.7v-4h1.77c.91,0,1.48.48,1.48,1.26a1.19,1.19,0,0,1-.95,1.21l1.07,1.51ZM47,22.74H46v1.34h1c.5,0,.82-.26.82-.67s-.31-.66-.82-.66"/><polygon points="52.83 22.73 50.58 22.73 50.58 23.76 52.57 23.76 52.57 24.39 50.58 24.39 50.58 25.45 52.86 25.45 52.86 26.08 49.88 26.08 49.88 22.1 52.83 22.1 52.83 22.73"/><path d="M55.68,23.77c.84.2,1.28.51,1.28,1.17s-.59,1.19-1.42,1.19a2.45,2.45,0,0,1-1.66-.64l.42-.5a1.83,1.83,0,0,0,1.26.52c.43,0,.7-.2.7-.51s-.16-.44-.9-.61S54,23.94,54,23.2A1.21,1.21,0,0,1,55.39,22a2.21,2.21,0,0,1,1.44.5l-.38.53a1.81,1.81,0,0,0-1.08-.41c-.41,0-.65.21-.65.48s.18.45.94.63"/><path d="M77.37,47.52H.63V.63H77.37ZM78,0H0V48.15H78Z"/><path d="M76,46.2H2V2H76Zm.21-44.46H1.74V46.41H76.26Z"/><path d="M17.7,36.82s-.11,0-.11,0c.14-.44,0-.69-.49-.69h-.43l0,0-.41,1.3h.21c.36,0,.5-.11.59-.41h.11l-.32,1s-.11,0-.11,0c.1-.3.05-.51-.31-.51h-.21L15.73,39s0,0,0,0h.42s0,.11,0,.11H14.78s0-.11,0-.11h.39s0,0,0,0l.91-2.88s0,0,0,0h-.4a.24.24,0,0,1,0-.11h2.15s0,0,0,0Z"/><path d="M18.29,39.19a.3.3,0,0,1-.35-.31c0-.35.42-.93.42-1.33,0-.09,0-.13-.11-.13s-.16.07-.25.24l-.11,0a.56.56,0,0,1,.48-.39c.23,0,.3.13.3.31,0,.44-.42,1-.42,1.27,0,.1,0,.17.13.17s.24-.08.36-.29l.1,0a.72.72,0,0,1-.57.44m.43-2.62a.22.22,0,1,1,.22-.22.23.23,0,0,1-.22.22"/><path d="M20.87,39.19c-.24,0-.35-.13-.35-.31,0-.35.37-.78.37-1.18a.19.19,0,0,0-.2-.19c-.18,0-.48.26-.77.75l-.28.89h-.34l.48-1.52c0-.12,0-.21-.09-.21s-.16.07-.25.24l-.1,0a.6.6,0,0,1,.51-.39c.27,0,.35.22.17.73a1.3,1.3,0,0,1,.93-.73.31.31,0,0,1,.3.35c0,.37-.38,1-.38,1.24,0,.1,0,.17.13.17s.24-.08.36-.29l.1,0a.73.73,0,0,1-.59.44"/><path d="M22.48,38.24h-.23a1.28,1.28,0,0,0-.07.41c0,.22.07.43.4.43a.85.85,0,0,0,.67-.36l.06.07a1,1,0,0,1-.74.38.69.69,0,0,1-.69-.74A1.22,1.22,0,0,1,23,37.24c.37,0,.49.2.49.36,0,.35-.38.64-1,.64m.49-.9c-.38,0-.54.26-.69.79h.22c.54,0,.69-.31.69-.59s-.07-.21-.22-.21"/><path d="M25.1,37.81a.16.16,0,0,1-.17-.16c0-.09.07-.11.07-.18s0-.12-.2-.12a.28.28,0,0,0-.31.32c0,.33.58.44.58.9a.62.62,0,0,1-.67.63c-.33,0-.53-.19-.53-.43a.22.22,0,0,1,.2-.24.17.17,0,0,1,.18.17c0,.19-.11.12-.11.24s.07.16.3.16a.33.33,0,0,0,.37-.35c0-.4-.57-.49-.57-.9a.6.6,0,0,1,.6-.59.42.42,0,0,1,.46.38.18.18,0,0,1-.19.19"/><path d="M26.93,37.34H26.6l-.48,1.52c0,.08,0,.14.09.14s.24-.07.36-.29l.1,0a.72.72,0,0,1-.57.44c-.27,0-.37-.19-.26-.54l.41-1.31h-.32s0-.11,0-.11h.32l.19-.62.36,0-.2.64H27s0,.11,0,.11"/><path d="M30.16,36.54c-.12,0-.18-.06-.18-.15s.08-.19.08-.25S30,36,29.88,36s-.34.12-.6.93c0,.11-.06.19-.09.32h.52a.22.22,0,0,1,0,.1h-.52c-.19.7-.41,1.58-.56,2.07-.22.67-.48,1.14-.93,1.14a.43.43,0,0,1-.45-.4.21.21,0,0,1,.2-.23c.12,0,.18.07.18.15s-.08.18-.08.24.08.13.18.13.31-.16.54-.86.39-1.56.58-2.24h-.46a.23.23,0,0,1,0-.1h.45c0-.11,0-.16.07-.25.21-.66.57-1.11,1-1.11a.41.41,0,0,1,.45.43.21.21,0,0,1-.2.22"/><path d="M31.24,37.87a.17.17,0,0,1-.19-.16c0-.1,0-.11,0-.15s0-.1-.08-.1-.3.19-.58.81l-.28.89H29.8l.48-1.52c0-.12,0-.21-.09-.21s-.16.07-.25.24l-.1,0a.6.6,0,0,1,.52-.39c.24,0,.35.2.21.58.18-.39.37-.58.59-.58a.31.31,0,0,1,.31.33c0,.12-.1.29-.23.29"/><path d="M32.43,38.24H32.2a1.28,1.28,0,0,0-.07.41c0,.22.07.43.4.43a.85.85,0,0,0,.67-.36l.06.07a1,1,0,0,1-.74.38.69.69,0,0,1-.69-.74,1.22,1.22,0,0,1,1.12-1.22c.37,0,.49.2.49.36,0,.35-.38.64-1,.64m.49-.9c-.38,0-.54.26-.69.79h.22c.54,0,.69-.31.69-.59s-.07-.21-.22-.21"/><path d="M35.48,39.19c-.24,0-.35-.13-.35-.31,0-.35.37-.78.37-1.18a.19.19,0,0,0-.2-.19c-.18,0-.48.26-.77.75l-.28.89H33.9l.48-1.52c0-.12,0-.21-.09-.21s-.16.07-.25.24l-.1,0a.6.6,0,0,1,.51-.39c.27,0,.35.22.17.73a1.3,1.3,0,0,1,.93-.73.31.31,0,0,1,.3.35c0,.37-.38,1-.38,1.24,0,.1,0,.17.13.17s.24-.08.36-.29l.1,0a.73.73,0,0,1-.59.44"/><path d="M37.9,37.88a.17.17,0,0,1-.18-.18c0-.13.07-.14.07-.24s-.07-.12-.23-.12a.48.48,0,0,0-.48.31,3.24,3.24,0,0,0-.28,1c0,.22.07.43.39.43a.9.9,0,0,0,.71-.41l.08.06a1,1,0,0,1-.79.45.69.69,0,0,1-.7-.74,1.18,1.18,0,0,1,1.08-1.22.51.51,0,0,1,.54.44.19.19,0,0,1-.2.2"/><path d="M40,39.19c-.24,0-.35-.13-.35-.31,0-.35.37-.78.37-1.18a.19.19,0,0,0-.2-.19c-.18,0-.48.26-.77.75l-.28.89h-.34l1-3.12s0,0,0,0h-.24a.25.25,0,0,1,0-.11l.61,0s0,0,0,0L39.15,38a1.3,1.3,0,0,1,.93-.73.31.31,0,0,1,.3.35c0,.37-.38,1-.38,1.24,0,.1,0,.17.13.17s.24-.08.36-.29l.1,0a.73.73,0,0,1-.59.44"/><path d="M42.86,39.19a.44.44,0,0,1-.37-.16L42,40.5h-.35l.91-2.88c0-.12,0-.21-.09-.21s-.16.07-.25.24l-.1,0a.58.58,0,0,1,.51-.39c.22,0,.32.17.23.5a.79.79,0,0,1,.59-.5c.43,0,.58.34.58.69a1.36,1.36,0,0,1-1.19,1.26m.55-1.83c-.29,0-.54.55-.7,1l-.17.54c0,.16.16.21.35.21a.5.5,0,0,0,.32-.13,1.74,1.74,0,0,0,.52-1.21c0-.23-.07-.38-.32-.38"/><path d="M46,37.87a.17.17,0,0,1-.19-.16c0-.1,0-.11,0-.15s0-.1-.08-.1-.3.19-.58.81l-.28.89H44.6l.48-1.52c0-.12,0-.21-.09-.21s-.16.07-.25.24l-.1,0a.6.6,0,0,1,.52-.39c.24,0,.35.2.21.58.18-.39.37-.58.59-.58a.31.31,0,0,1,.31.33c0,.12-.1.29-.23.29"/><path d="M47.31,39.19a.69.69,0,0,1-.69-.74,1.22,1.22,0,0,1,1.12-1.22.69.69,0,0,1,.69.74,1.22,1.22,0,0,1-1.12,1.21m.42-1.85a.54.54,0,0,0-.53.31,3.37,3.37,0,0,0-.28,1c0,.22.07.43.4.43a.55.55,0,0,0,.53-.32,3.33,3.33,0,0,0,.28-1c0-.21-.07-.43-.4-.43"/><path d="M49.74,39.19a.44.44,0,0,1-.37-.16L48.9,40.5h-.35l.91-2.88c0-.12,0-.21-.09-.21s-.16.07-.25.24l-.1,0a.58.58,0,0,1,.51-.39c.22,0,.32.17.23.5a.79.79,0,0,1,.59-.5c.43,0,.58.34.58.69a1.36,1.36,0,0,1-1.19,1.26m.55-1.83c-.29,0-.54.55-.7,1l-.17.54c0,.16.16.21.35.21A.5.5,0,0,0,50.1,39a1.74,1.74,0,0,0,.52-1.21c0-.23-.07-.38-.32-.38"/><path d="M52.11,38.24h-.23a1.28,1.28,0,0,0-.07.41c0,.22.07.43.4.43a.85.85,0,0,0,.67-.36l.06.07a1,1,0,0,1-.74.38.69.69,0,0,1-.69-.74,1.22,1.22,0,0,1,1.12-1.22c.37,0,.49.2.49.36,0,.35-.38.64-1,.64m.49-.9c-.38,0-.54.26-.69.79h.22c.54,0,.69-.31.69-.59s-.07-.21-.22-.21"/><path d="M55,37.87a.17.17,0,0,1-.19-.16c0-.1,0-.11,0-.15s0-.1-.08-.1-.3.19-.58.81l-.28.89h-.35l.48-1.52c0-.12,0-.21-.09-.21s-.16.07-.25.24l-.1,0a.6.6,0,0,1,.52-.39c.24,0,.35.2.21.58.18-.39.37-.58.59-.58a.31.31,0,0,1,.31.33c0,.12-.1.29-.23.29"/><path d="M56.75,37.34h-.33l-.48,1.52c0,.08,0,.14.09.14s.24-.07.36-.29l.1,0a.72.72,0,0,1-.57.44c-.27,0-.37-.19-.26-.54l.41-1.31h-.32s0-.11,0-.11h.32l.19-.62.36,0-.2.64h.33s0,.11,0,.11"/><path d="M57.43,39.19a.3.3,0,0,1-.35-.31c0-.35.42-.93.42-1.33,0-.09,0-.13-.11-.13s-.16.07-.25.24l-.11,0a.56.56,0,0,1,.48-.39c.23,0,.3.13.3.31,0,.44-.42,1-.42,1.27,0,.1,0,.17.13.17s.24-.08.36-.29l.1,0a.72.72,0,0,1-.57.44m.43-2.62a.22.22,0,1,1,.22-.22.23.23,0,0,1-.22.22"/><path d="M59,38.24h-.23a1.28,1.28,0,0,0-.07.41c0,.22.07.43.4.43a.85.85,0,0,0,.67-.36l.06.07a1,1,0,0,1-.74.38.69.69,0,0,1-.69-.74,1.22,1.22,0,0,1,1.12-1.22c.37,0,.49.2.49.36,0,.35-.38.64-1,.64m.49-.9c-.38,0-.54.26-.69.79h.22c.54,0,.69-.31.69-.59s-.07-.21-.22-.21"/><path d="M61.66,37.81a.16.16,0,0,1-.17-.16c0-.09.07-.11.07-.18s0-.12-.2-.12a.28.28,0,0,0-.31.32c0,.33.58.44.58.9a.62.62,0,0,1-.67.63c-.33,0-.53-.19-.53-.43a.22.22,0,0,1,.2-.24.17.17,0,0,1,.18.17c0,.19-.11.12-.11.24s.07.16.3.16a.33.33,0,0,0,.37-.35c0-.4-.57-.49-.57-.9a.6.6,0,0,1,.6-.59.42.42,0,0,1,.46.38.18.18,0,0,1-.19.19"/><path d="M62.39,39.21a.16.16,0,0,1-.17-.18.29.29,0,0,1,.27-.29.17.17,0,0,1,.17.18.29.29,0,0,1-.27.29"/></svg>