<?xml version="1.0" encoding="utf-8"?>
<!-- Generator: Adobe Illustrator 20.0.0, SVG Export Plug-In . SVG Version: 6.00 Build 0)  -->
<svg version="1.1" id="Calque_1" xmlns="http://www.w3.org/2000/svg" xmlns:xlink="http://www.w3.org/1999/xlink" x="0px" y="0px"
	 viewBox="0 0 511.4 142.8" enable-background="new 0 0 511.4 142.8" xml:space="preserve">
<g id="immostreet_2_-_copie">
	<g>
		<polygon display="none" fill="#333333" points="520.2,-4.8 -8.2,-4.8 -8.2,148.8 520.2,148.9 		"/>
		<polygon fill="#333333" points="294.4,15.3 247.7,34.3 247.7,17 228.5,17 228.5,42.2 190.8,57.6 190.8,69.9 295.1,27.8 468.9,68 
			468.9,56.9 		"/>
		<g>
			<path fill="#333333" d="M14.8,57.2h14.3v65.1H14.8V57.2z"/>
			<path fill="#333333" d="M35.6,75.1h12.2v6.4H48c3.4-4.8,8.2-7.7,14.4-7.7c5.9,0,11.2,2.1,13.8,7.8c2.8-4.1,7.7-7.8,14.2-7.8
				c10,0,17.2,4.6,17.2,16.9v31.5H94.7V95.5c0-6.3-0.5-11.5-7.9-11.5c-7.3,0-8.7,6.1-8.7,11.9v26.2H65.2V95.8
				c0-5.5,0.4-11.8-7.8-11.8c-2.6,0-8.7,1.6-8.7,10.8v27.3H35.6V75.1z"/>
			<path fill="#333333" d="M113.2,75.1h12.2v6.4h0.2c3.4-4.8,8.2-7.7,14.4-7.7c5.9,0,11.2,2.1,13.8,7.8c2.8-4.1,7.7-7.8,14.2-7.8
				c10,0,17.2,4.6,17.2,16.9v31.5h-12.9V95.5c0-6.3-0.5-11.5-7.9-11.5c-7.3,0-8.7,6.1-8.7,11.9v26.2h-12.9V95.8
				c0-5.5,0.4-11.8-7.8-11.8c-2.6,0-8.7,1.6-8.7,10.8v27.3h-12.9v-47H113.2z"/>
			<path fill="#333333" d="M215.2,73.9c14.9,0,24.4,9.8,24.4,24.9c0,14.9-9.6,24.8-24.4,24.8c-14.8,0-24.3-9.8-24.3-24.8
				C190.9,83.7,200.5,73.9,215.2,73.9z M215.2,113.8c8.8,0,11.5-7.5,11.5-15c0-7.6-2.6-15.1-11.5-15.1c-8.7,0-11.4,7.6-11.4,15.1
				C203.9,106.3,206.5,113.8,215.2,113.8z"/>
			<path fill="#333333" d="M259.2,100.7c0,8.7,6.7,12,14.4,12c5,0,12.7-1.5,12.7-8.1c0-7.1-9.8-8.1-19.3-10.8
				c-9.7-2.4-19.4-6.5-19.4-18.5c0-13.4,12.6-19.7,24.3-19.7c13.6,0,26.1,5.9,26.1,21h-14c-0.5-7.7-5.9-9.8-12.8-9.8
				c-4.6,0-9.8,1.9-9.8,7.4c0,5,3.1,5.7,19.4,9.8c4.8,1.1,19.3,4.3,19.3,19c0,11.9-9.3,20.9-27.1,20.9c-14.4,0-28-7.1-27.7-23.1
				L259.2,100.7L259.2,100.7z"/>
			<path fill="#333333" d="M320.6,75.1h9.5v8.7h-9.5v23.3c0,4.4,1.1,5.5,5.5,5.5c1.5,0,2.8-0.1,4-0.4v10.1c-2.2,0.4-5,0.5-7.6,0.5
				c-8,0-14.9-1.7-14.9-11.2V83.8h-7.8v-8.7h7.8V61h12.9v14.1H320.6z"/>
			<path fill="#333333" d="M336.2,75.1h12.3v8.7h0.2c2.5-5.9,8.6-10,15-10c1,0,1.9,0.2,2.8,0.5v12c-1.2-0.3-3.1-0.5-4.6-0.5
				c-9.6,0-12.8,6.7-12.8,15.1v21.2h-12.9V75.1z"/>
			<path fill="#333333" d="M379.3,101.8c0.4,8.3,4.3,11.9,11.6,11.9c5.2,0,9.4-3.2,10.2-6.1h11.4c-3.6,11.2-11.4,15.9-22,15.9
				c-14.9,0-24.1-10.2-24.1-24.8c0-14.1,9.7-24.9,24.1-24.9c16,0,23.9,13.5,22.9,28C413.4,101.8,379.3,101.8,379.3,101.8z
				 M400.4,93.6c-1.2-6.6-4-10-10.3-10c-8.4,0-10.5,6.4-10.8,10H400.4z"/>
			<path fill="#333333" d="M431.6,101.8c0.4,8.3,4.3,11.9,11.6,11.9c5.2,0,9.4-3.2,10.2-6.1h11.4c-3.6,11.2-11.4,15.9-22,15.9
				c-14.9,0-24.1-10.2-24.1-24.8c0-14.1,9.7-24.9,24.1-24.9c16,0,23.9,13.5,22.9,28C465.7,101.8,431.6,101.8,431.6,101.8z
				 M452.7,93.6c-1.2-6.6-4-10-10.3-10c-8.4,0-10.5,6.4-10.8,10H452.7z"/>
			<path fill="#333333" d="M489.7,75.1h9.5v8.7h-9.5v23.3c0,4.4,1.1,5.5,5.5,5.5c1.5,0,2.8-0.1,4-0.4v10.1c-2.2,0.4-5,0.5-7.6,0.5
				c-8,0-14.9-1.7-14.9-11.2V83.8h-7.8v-8.7h7.8V58.8l12.9,3.1v13.2H489.7z"/>
		</g>
	</g>
</g>
<g id="immostreet_1">
</g>
</svg>
