<?xml version="1.0" encoding="utf-8"?>
<!-- Generator: Adobe Illustrator 20.0.0, SVG Export Plug-In . SVG Version: 6.00 Build 0)  -->
<svg version="1.1" id="Calque_1" xmlns="http://www.w3.org/2000/svg" xmlns:xlink="http://www.w3.org/1999/xlink" x="0px" y="0px"
	 viewBox="0 0 512 82.9" enable-background="new 0 0 512 82.9" xml:space="preserve">
<g>
	<path fill="#333333" d="M18.6,6.3h18.3L25.4,61.6h22.5l-3.1,15H4L18.6,6.3z"/>
	<path fill="#333333" d="M74.7,76.6c-0.3-1.9,0-3.7,0.1-6h-0.2c-3.1,4.7-8.1,7.4-13.5,7.4c-10.6,0-13.6-6.6-11.5-15.6
		c1.9-9.8,6.5-14.5,18.3-17.1l7.3-1.7c4-0.9,5.8-2.6,6.5-5.8c0.6-3.2-0.6-4.9-3.5-4.9c-3.4,0-5.2,1.5-6.5,7.1H56.3
		C59.5,24.5,72.3,22,80.4,22c12.4,0,20.4,3.3,17.5,17.1l-5.4,26c-1.1,5-1.8,8.8-0.7,11.5H74.7z M77.6,57.3l1.4-6.4h-0.2
		c-1.3,1.5-3.7,1.3-6.5,2.5c-3.1,1.3-4.4,3.3-5.1,6.9c-0.7,3.5,0.5,5.8,3.1,5.8C74.2,66.1,76.4,63.2,77.6,57.3z"/>
	<path fill="#333333" d="M137,27.7c1.7-8,0.7-10.3-2.9-10.3c-5.6,0-7.3,5.1-11.2,24.1c-3.9,19-4.4,24.1,1.2,24.1
		c4.5,0,6.2-3.9,9.1-17.2h17.7l-1.1,5.2C145.9,73.2,133.3,78,121.6,78c-20.5,0-23-10.2-17.5-36.5c5.5-26.9,13.8-36.5,32.7-36.5
		c16.4,0,21,8.7,18.1,22.2l-0.9,4.4h-17.7L137,27.7z"/>
	<path fill="#333333" d="M171.7,78c-20.9,0-20-12.7-16.8-28c2.9-13.9,8.5-28,28.4-28c20.7,0,20,12.7,16.8,28
		C197.2,63.9,191.6,78,171.7,78z M174,66.5c4,0,5.5-3.1,8.4-16.5c2.7-13.5,2.7-16.6-1.5-16.6c-3.8,0-5.7,3.1-8.4,16.6
		C169.7,63.4,170.1,66.5,174,66.5z"/>
	<path fill="#333333" d="M207.8,23.3h5.9l3.2-15.6h17.7l-3.2,15.6h7l-2.5,11.9h-7l-5.3,25.4c-0.7,3.1,0.5,4.1,3.3,4.1h2.8l-2.4,11.8
		c-3.4,0.4-6.8,0.6-9.8,0.6c-10.8,0-14.6-1.8-12.2-13.6l5.9-28.3h-5.9L207.8,23.3z"/>
	<path fill="#333333" d="M252.1,53l-1.4,7c-1.3,5.7,1,7.2,3.2,7.2c3.2,0,5.4-2,7-9.3h15.9c-2.9,13-10.3,20.1-25,20.1
		c-12.7,0-18.4-4.3-18.4-15.1c0-3.5,0.5-7.9,1.6-12.9c4.1-20.4,12.5-28,28.4-28c14.3,0,20,6.3,16,25.6l-1.2,5.4H252.1z M264.4,41
		c1.2-5.6,0.6-8.2-3.2-8.2c-3.6,0-5.3,2.6-6.5,8.2l-0.5,2.4h9.7L264.4,41z"/>
	<path fill="#333333" d="M293.1,6.3h18.3l-14.6,70.3h-18.3L293.1,6.3z"/>
	<path fill="#333333" d="M337.2,41.4c0.9-4.4,0.1-6.3-3.1-6.3c-3.1,0-4.7,1.9-5.6,6.3l-7.3,35.1h-17.7l11-53.2h17.1l-1.4,6.5h0.2
		c3.4-5.2,8.4-7.9,14.6-7.9c7.4,0,10.2,2.7,11.3,8.2c3.9-6,9.5-8.2,15.1-8.2c7.8,0,13.2,3.1,10.8,14.5L374,76.6h-17.7l7.3-35.1
		c0.9-4.4,0.1-6.3-3.1-6.3s-4.7,1.9-5.6,6.3l-7.3,35.1h-17.7L337.2,41.4z"/>
	<path fill="#333333" d="M413.8,41.4c0.9-4.4,0.1-6.3-3.1-6.3c-3.1,0-4.7,1.9-5.6,6.3l-7.3,35.1h-17.7l11-53.2h17.1l-1.4,6.5h0.2
		c3.4-5.2,8.4-7.9,14.6-7.9c7.4,0,10.2,2.7,11.3,8.2c3.9-6,9.5-8.2,15.1-8.2c7.8,0,13.2,3.1,10.8,14.5l-8.3,40.2h-17.7l7.3-35.1
		c0.9-4.4,0.1-6.3-3.1-6.3c-3.1,0-4.7,1.9-5.6,6.3l-7.3,35.1h-17.7L413.8,41.4z"/>
	<path fill="#333333" d="M477.9,78c-20.9,0-20-12.7-16.8-28c2.9-13.9,8.5-28,28.4-28c20.7,0,20,12.7,16.8,28
		C503.5,63.9,497.9,78,477.9,78z M480.3,66.5c4,0,5.5-3.1,8.4-16.5c2.7-13.5,2.7-16.6-1.5-16.6c-3.8,0-5.7,3.1-8.4,16.6
		C476,63.4,476.4,66.5,480.3,66.5z"/>
</g>
</svg>