<?xml version="1.0" encoding="utf-8"?>
<!-- Generator: Adobe Illustrator 15.0.2, SVG Export Plug-In . SVG Version: 6.00 Build 0)  -->
<!DOCTYPE svg PUBLIC "-//W3C//DTD SVG 1.1//EN" "http://www.w3.org/Graphics/SVG/1.1/DTD/svg11.dtd">
<svg version="1.1" id="Calque_1" xmlns="http://www.w3.org/2000/svg" xmlns:xlink="http://www.w3.org/1999/xlink" x="0px" y="0px"
	 width="220.792px" height="116px" viewBox="0 0 220.792 116" enable-background="new 0 0 220.792 116" xml:space="preserve">
<g>
	<defs>
		<rect id="SVGID_1_" width="220.792" height="116"/>
	</defs>
	<clipPath id="SVGID_2_">
		<use xlink:href="#SVGID_1_"  overflow="visible"/>
	</clipPath>
	<path clip-path="url(#SVGID_2_)" d="M108.283,89.863c-0.087,0.501-0.352,0.753-0.79,0.753h-9.996l-0.011,0.062
		c-0.076,0.434-0.099,0.859-0.067,1.273c0.033,0.414,0.147,0.775,0.343,1.086c0.197,0.311,0.483,0.561,0.858,0.746
		c0.374,0.187,0.876,0.279,1.503,0.279c0.5,0,1.035-0.01,1.602-0.032c0.568-0.021,1.131-0.042,1.688-0.063
		c0.556-0.021,1.078-0.046,1.565-0.078c0.486-0.031,0.889-0.067,1.21-0.109h0.094c0.395,0,0.566,0.168,0.508,0.503l-0.42,2.4
		c-0.045,0.252-0.121,0.441-0.225,0.567c-0.105,0.126-0.3,0.222-0.582,0.284c-1.048,0.252-2.063,0.442-3.046,0.568
		c-0.982,0.126-2.153,0.188-3.512,0.188c-0.939,0-1.856-0.136-2.749-0.407c-0.892-0.271-1.66-0.72-2.301-1.347
		c-0.643-0.627-1.104-1.458-1.382-2.491c-0.281-1.034-0.287-2.304-0.024-3.808l0.383-2.195c0.219-1.252,0.596-2.39,1.131-3.414
		c0.533-1.023,1.202-1.892,2.006-2.601c0.802-0.711,1.728-1.259,2.778-1.646s2.201-0.58,3.455-0.58c1.274,0,2.361,0.209,3.259,0.628
		c0.898,0.417,1.607,0.992,2.128,1.723c0.519,0.731,0.852,1.598,1.002,2.602c0.147,1.003,0.118,2.099-0.09,3.288L108.283,89.863z
		 M103.77,87.356c0.204-1.17,0.106-2.042-0.294-2.618c-0.401-0.573-1.04-0.861-1.918-0.861s-1.629,0.293-2.253,0.879
		c-0.625,0.584-1.037,1.451-1.238,2.601l-0.023,0.125h5.705L103.77,87.356z"/>
	<path clip-path="url(#SVGID_2_)" d="M139.611,90.146c-0.218,1.253-0.589,2.382-1.108,3.384c-0.521,1.003-1.173,1.854-1.954,2.554
		c-0.782,0.7-1.692,1.244-2.734,1.63c-1.041,0.386-2.201,0.579-3.477,0.579c-1.276,0-2.368-0.193-3.273-0.579
		c-0.907-0.386-1.633-0.93-2.181-1.63c-0.548-0.699-0.906-1.551-1.076-2.554c-0.171-1.002-0.146-2.131,0.074-3.384l0.383-2.193
		c0.219-1.254,0.589-2.383,1.109-3.385c0.521-1.003,1.178-1.854,1.971-2.555c0.792-0.699,1.708-1.242,2.75-1.629
		c1.04-0.387,2.199-0.58,3.476-0.58c1.277,0,2.369,0.193,3.274,0.58c0.906,0.387,1.628,0.93,2.165,1.629
		c0.537,0.7,0.889,1.552,1.06,2.555c0.17,1.002,0.146,2.131-0.073,3.385L139.611,90.146z M134.92,87.952
		c0.445-2.55-0.256-3.823-2.104-3.823c-0.915,0-1.667,0.318-2.256,0.956c-0.589,0.637-0.995,1.593-1.218,2.867l-0.385,2.193
		c-0.223,1.273-0.151,2.235,0.214,2.883c0.364,0.647,1.004,0.972,1.918,0.972c1.849,0,2.998-1.286,3.447-3.854L134.92,87.952z"/>
	<path clip-path="url(#SVGID_2_)" d="M158.175,82.655c-0.038,0.23-0.114,0.386-0.224,0.471c-0.107,0.083-0.262,0.156-0.462,0.219
		l-1.023,0.314c0.136,0.292,0.232,0.657,0.293,1.097c0.059,0.438,0.055,0.846-0.01,1.222l-0.046,0.25
		c-0.356,2.048-1.292,3.537-2.802,4.466c-1.509,0.93-3.498,1.396-5.962,1.396c-0.731,0-1.372-0.049-1.919-0.143
		s-0.966-0.203-1.257-0.328c-0.188,0.104-0.321,0.213-0.403,0.328c-0.084,0.116-0.137,0.247-0.163,0.393
		c-0.044,0.251-0.013,0.438,0.089,0.564c0.104,0.125,0.337,0.229,0.698,0.313l3.404,0.783c1.306,0.292,2.405,0.581,3.296,0.862
		c0.89,0.282,1.591,0.605,2.102,0.971c0.512,0.367,0.847,0.805,1.009,1.317c0.161,0.512,0.176,1.142,0.044,1.896l-0.044,0.25
		c-0.596,3.405-3.63,5.108-9.104,5.108c-2.611,0-4.514-0.438-5.708-1.316c-1.193-0.876-1.646-2.141-1.357-3.792l0.043-0.25
		c0.113-0.647,0.366-1.264,0.762-1.849c0.394-0.585,0.972-1.139,1.731-1.661c-0.509-0.313-0.841-0.747-0.993-1.301
		c-0.154-0.553-0.186-1.091-0.096-1.613c0.104-0.585,0.324-1.097,0.661-1.537c0.338-0.438,0.734-0.813,1.186-1.127
		c-0.427-0.438-0.689-1.012-0.795-1.724c-0.106-0.71-0.104-1.379,0.005-2.006l0.044-0.25c0.31-1.775,1.183-3.206,2.615-4.293
		c1.434-1.087,3.518-1.63,6.255-1.63h7.803c0.229,0,0.404,0.078,0.522,0.235c0.117,0.156,0.158,0.35,0.117,0.579L158.175,82.655z
		 M149.668,99.045c0.025-0.146,0.016-0.288-0.035-0.423c-0.05-0.136-0.178-0.267-0.388-0.393c-0.206-0.125-0.509-0.251-0.903-0.375
		c-0.397-0.126-0.937-0.272-1.616-0.439l-2.231-0.502c-0.234,0.272-0.438,0.561-0.604,0.862c-0.168,0.304-0.3,0.726-0.395,1.27
		l-0.045,0.25c-0.094,0.544,0.055,0.946,0.448,1.208c0.393,0.26,1.195,0.391,2.407,0.391c0.646,0,1.176-0.036,1.586-0.109
		c0.409-0.073,0.737-0.184,0.981-0.329c0.245-0.146,0.422-0.318,0.528-0.517c0.108-0.199,0.184-0.413,0.224-0.644L149.668,99.045z
		 M151.797,85.978c0.112-0.647,0.02-1.187-0.281-1.613c-0.302-0.429-1.005-0.644-2.114-0.644c-1.105,0-1.896,0.215-2.368,0.644
		c-0.471,0.427-0.763,0.966-0.878,1.613l-0.043,0.25c-0.047,0.271-0.058,0.538-0.029,0.799c0.026,0.263,0.127,0.497,0.299,0.705
		c0.172,0.21,0.431,0.377,0.774,0.502s0.818,0.188,1.424,0.188c1.108,0,1.885-0.197,2.329-0.595c0.446-0.396,0.727-0.93,0.845-1.599
		L151.797,85.978z"/>
	<path clip-path="url(#SVGID_2_)" d="M172.581,89.863c-0.087,0.501-0.351,0.753-0.789,0.753h-9.996l-0.011,0.062
		c-0.076,0.434-0.099,0.859-0.067,1.273c0.033,0.414,0.147,0.775,0.344,1.086c0.195,0.311,0.481,0.561,0.857,0.746
		c0.374,0.187,0.875,0.279,1.502,0.279c0.501,0,1.035-0.01,1.604-0.032c0.566-0.021,1.13-0.042,1.688-0.063
		c0.557-0.021,1.078-0.046,1.564-0.078c0.485-0.031,0.889-0.067,1.21-0.109h0.095c0.396,0,0.565,0.168,0.508,0.503l-0.421,2.4
		c-0.044,0.252-0.121,0.441-0.225,0.567c-0.105,0.126-0.3,0.222-0.583,0.284c-1.046,0.252-2.063,0.442-3.045,0.568
		s-2.153,0.188-3.512,0.188c-0.939,0-1.855-0.136-2.75-0.407c-0.892-0.271-1.659-0.72-2.301-1.347
		c-0.643-0.627-1.104-1.458-1.382-2.491c-0.279-1.034-0.287-2.304-0.024-3.808l0.384-2.195c0.22-1.252,0.596-2.39,1.131-3.414
		c0.533-1.023,1.202-1.892,2.006-2.601c0.802-0.711,1.729-1.259,2.778-1.646s2.2-0.58,3.453-0.58c1.275,0,2.362,0.209,3.261,0.628
		c0.897,0.417,1.607,0.992,2.127,1.723c0.519,0.731,0.854,1.598,1.003,2.602c0.147,1.003,0.118,2.099-0.089,3.288L172.581,89.863z
		 M168.068,87.356c0.205-1.17,0.106-2.042-0.294-2.618c-0.4-0.573-1.04-0.861-1.918-0.861c-0.877,0-1.628,0.293-2.253,0.879
		c-0.624,0.584-1.037,1.451-1.237,2.601l-0.023,0.125h5.704L168.068,87.356z"/>
	<path clip-path="url(#SVGID_2_)" d="M184.39,83.845c-0.105,0.127-0.231,0.189-0.378,0.189h-0.25c-0.773,0-1.514,0.104-2.218,0.313
		c-0.705,0.208-1.378,0.469-2.017,0.781l-2.138,12.225c-0.03,0.167-0.118,0.319-0.269,0.454c-0.147,0.136-0.306,0.204-0.473,0.204
		h-3.791c-0.168,0-0.308-0.068-0.42-0.204c-0.113-0.137-0.153-0.288-0.125-0.455l2.916-16.671c0.029-0.167,0.118-0.313,0.265-0.438
		c0.147-0.126,0.305-0.188,0.472-0.188h3.729c0.168,0,0.302,0.064,0.406,0.19c0.104,0.126,0.142,0.272,0.109,0.442l-0.109,0.631
		c0.669-0.483,1.397-0.856,2.186-1.12s1.558-0.395,2.311-0.395c0.166,0,0.302,0.063,0.404,0.189
		c0.104,0.126,0.141,0.274,0.111,0.442l-0.525,2.999C184.562,83.582,184.494,83.719,184.39,83.845"/>
	<path clip-path="url(#SVGID_2_)" d="M121.88,97.875c-0.263,0.062-0.588,0.115-1.011,0.175c-0.515,0.07-1.1,0.134-1.687,0.178
		c-0.482,0.036-1.199,0.055-1.616,0.055c-1.003,0-1.955-0.083-2.854-0.25s-1.656-0.491-2.271-0.971
		c-0.615-0.482-1.052-1.164-1.312-2.054c-0.262-0.888-0.265-2.042-0.012-3.462l2.881-16.202c0.029-0.167,0.117-0.313,0.267-0.438
		c0.146-0.126,0.303-0.189,0.471-0.189h4.105c0.167,0,0.303,0.063,0.404,0.189c0.104,0.125,0.142,0.271,0.111,0.438l-2.88,16.202
		c-0.146,0.814-0.093,1.373,0.156,1.676s0.739,0.455,1.471,0.455h4.523c0.166,0,0.302,0.062,0.404,0.188
		c0.104,0.125,0.141,0.272,0.11,0.438l-0.518,2.914C122.561,97.572,122.313,97.792,121.88,97.875"/>
	<path clip-path="url(#SVGID_2_)" d="M92.933,77.334c-0.899-0.247-1.852-0.455-2.829-0.618c-0.972-0.16-2.207-0.241-3.672-0.241
		c-2.534,0-4.52,0.482-5.898,1.435c-1.36,0.939-2.212,2.336-2.537,4.152c-0.206,1.162-0.111,2.196,0.284,3.073
		c0.393,0.88,1.046,1.613,1.935,2.181l4.425,2.844c0.522,0.332,0.868,0.632,1.059,0.917c0.211,0.317,0.283,0.666,0.217,1.033
		c-0.105,0.597-0.367,1.049-0.775,1.343c-0.398,0.288-1.075,0.428-2.071,0.428c-0.31,0-0.729-0.014-1.243-0.038
		c-0.518-0.025-1.083-0.064-1.68-0.115c-0.592-0.05-1.203-0.108-1.816-0.171c-0.59-0.062-1.143-0.131-1.64-0.207h-0.125
		c-0.139,0-0.243,0.037-0.33,0.116c-0.094,0.087-0.149,0.187-0.172,0.313l-0.546,3.072c-0.049,0.273,0.029,0.393,0.31,0.47
		c0.443,0.124,0.946,0.235,1.497,0.335c0.549,0.099,1.131,0.188,1.731,0.263c0.593,0.074,1.187,0.132,1.764,0.169
		s1.131,0.056,1.65,0.056c1.345,0,2.549-0.161,3.578-0.478c1.025-0.315,1.915-0.75,2.65-1.293c0.727-0.537,1.32-1.185,1.762-1.926
		c0.444-0.743,0.743-1.546,0.893-2.384c0.085-0.478,0.123-0.965,0.112-1.448c-0.01-0.459-0.109-0.92-0.295-1.371
		c-0.186-0.454-0.475-0.905-0.858-1.342c-0.385-0.44-0.923-0.885-1.595-1.321l-4.227-2.695c-0.369-0.247-0.639-0.47-0.829-0.685
		c-0.24-0.269-0.33-0.613-0.262-0.996c0.122-0.684,0.508-0.992,0.81-1.131c0.38-0.176,0.951-0.26,1.743-0.26
		c0.485,0,1.044,0.019,1.661,0.057c0.605,0.038,1.213,0.083,1.804,0.134c0.588,0.051,1.138,0.109,1.633,0.172
		c0.483,0.062,0.861,0.106,1.124,0.13h0.098c0.178,0,0.355-0.033,0.427-0.43l0.545-3.07C93.293,77.53,93.214,77.412,92.933,77.334"
		/>
	<path clip-path="url(#SVGID_2_)" d="M197.241,84.272c0-2.537-2.058-4.595-4.595-4.595s-4.594,2.058-4.594,4.595
		c0,0.867,0.24,1.679,0.657,2.37l-2.014,1.803c0,0-0.155,0.132-0.082,0.298c0.061,0.135,0.23,0.123,0.23,0.123h5.823
		C195.195,88.854,197.241,86.803,197.241,84.272"/>
	<path clip-path="url(#SVGID_2_)" d="M57.036,91.726c-0.17,0.959-0.437,1.831-0.8,2.619c-0.362,0.787-0.823,1.455-1.384,2.003
		c-0.559,0.549-1.217,0.972-1.972,1.271c-0.755,0.3-1.612,0.449-2.57,0.449c-0.77,0-1.544-0.034-2.318-0.103
		c-0.776-0.067-1.552-0.18-2.329-0.334c-0.234-0.033-0.372-0.094-0.417-0.18c-0.045-0.085-0.051-0.223-0.017-0.41l3.197-17.975
		c0.025-0.137,0.088-0.252,0.191-0.347c0.101-0.094,0.22-0.141,0.358-0.141h1.31c0.136,0,0.244,0.047,0.321,0.141
		c0.077,0.095,0.104,0.21,0.079,0.347l-0.85,4.776c0.512-0.086,1.046-0.15,1.602-0.193c0.556-0.042,1.038-0.063,1.449-0.063
		c1.865,0,3.168,0.543,3.908,1.63c0.74,1.088,0.93,2.642,0.571,4.661L57.036,91.726z M55.105,89.877
		c0.244-1.37,0.188-2.431-0.165-3.185c-0.355-0.753-1.156-1.129-2.405-1.129c-0.206,0-0.438,0.004-0.697,0.013
		c-0.257,0.008-0.525,0.017-0.799,0.025c-0.277,0.009-0.549,0.025-0.819,0.051c-0.27,0.026-0.511,0.057-0.722,0.09l-1.813,10.194
		c0.439,0.034,0.933,0.068,1.483,0.103c0.55,0.034,1.048,0.052,1.494,0.052c1.266,0,2.207-0.377,2.82-1.13
		c0.612-0.754,1.045-1.832,1.294-3.235L55.105,89.877z"/>
	<path clip-path="url(#SVGID_2_)" d="M70.97,83.997c-0.015,0.086-0.035,0.146-0.058,0.18l-6.868,14.79
		c-0.33,0.702-0.653,1.292-0.97,1.772c-0.316,0.479-0.68,0.868-1.093,1.168c-0.413,0.299-0.884,0.517-1.414,0.654
		c-0.529,0.137-1.161,0.206-1.898,0.206c-0.359,0-0.736-0.021-1.131-0.064c-0.394-0.043-0.722-0.099-0.984-0.167
		c-0.148-0.034-0.269-0.077-0.362-0.129c-0.094-0.051-0.128-0.146-0.104-0.282l0.169-0.95c0.049-0.273,0.235-0.41,0.561-0.41h0.077
		c0.285,0.033,0.659,0.067,1.124,0.102c0.465,0.035,0.843,0.052,1.134,0.052c0.359,0,0.68-0.029,0.965-0.09
		c0.286-0.06,0.539-0.171,0.766-0.334c0.226-0.162,0.436-0.385,0.632-0.667c0.196-0.282,0.385-0.646,0.566-1.091l0.446-1.054h-0.361
		c-0.188,0-0.369-0.017-0.543-0.051s-0.331-0.111-0.471-0.231c-0.142-0.12-0.26-0.299-0.355-0.539
		c-0.094-0.239-0.166-0.556-0.215-0.95l-1.329-11.734c-0.011-0.033-0.008-0.094,0.007-0.18c0.052-0.291,0.231-0.437,0.54-0.437
		h1.412c0.103,0,0.186,0.043,0.247,0.129c0.062,0.086,0.1,0.181,0.116,0.282l1.043,11.168c0.023,0.258,0.072,0.416,0.147,0.477
		c0.075,0.061,0.155,0.089,0.241,0.089h0.411l5.224-11.759c0.053-0.103,0.129-0.192,0.227-0.27c0.101-0.076,0.209-0.116,0.33-0.116
		h1.438C70.91,83.561,71.021,83.706,70.97,83.997"/>
	<path clip-path="url(#SVGID_2_)" d="M57.037,70.377c-0.089,0.111-0.205,0.182-0.348,0.208c-0.567,0.083-1.577,0.165-3.027,0.248
		c-1.452,0.084-3.158,0.125-5.119,0.125c-1.106,0-2.175-0.084-3.208-0.249c-1.035-0.165-1.918-0.519-2.652-1.057
		c-0.732-0.538-1.257-1.311-1.576-2.32c-0.318-1.008-0.324-2.368-0.019-4.081l4.011-22.542c0.039-0.22,0.156-0.414,0.35-0.58
		c0.195-0.165,0.404-0.249,0.625-0.249h2.113c0.221,0,0.4,0.084,0.536,0.249c0.136,0.166,0.185,0.36,0.146,0.58l-4.011,22.542
		c-0.142,0.802-0.199,1.471-0.171,2.01c0.029,0.539,0.192,0.98,0.49,1.325c0.297,0.346,0.763,0.595,1.4,0.746
		c0.636,0.152,1.506,0.229,2.611,0.229h7.997c0.304,0,0.427,0.166,0.369,0.497l-0.347,1.947
		C57.183,70.145,57.125,70.269,57.037,70.377"/>
	<path clip-path="url(#SVGID_2_)" d="M161.943,40.584c-0.021,0.111-0.049,0.193-0.086,0.249l-12.423,26.975
		c-0.312,0.664-0.661,1.195-1.051,1.596c-0.389,0.4-0.791,0.719-1.206,0.953c-0.415,0.235-0.843,0.394-1.285,0.477
		c-0.443,0.084-0.857,0.125-1.244,0.125c-0.39,0-0.78-0.041-1.182-0.125c-0.398-0.083-0.771-0.241-1.115-0.477
		c-0.346-0.234-0.641-0.553-0.888-0.953s-0.408-0.932-0.482-1.596l-2.867-26.975c-0.019-0.056-0.018-0.138,0.003-0.249
		c0.04-0.221,0.139-0.393,0.3-0.518c0.159-0.124,0.351-0.187,0.571-0.187h2.402c0.166,0,0.307,0.063,0.424,0.187
		c0.114,0.125,0.186,0.27,0.212,0.435l2.515,26.395c0.063,0.581,0.287,0.871,0.674,0.871c0.359,0,0.673-0.29,0.942-0.871
		l11.947-26.395c0.085-0.165,0.199-0.31,0.347-0.435c0.146-0.124,0.303-0.187,0.469-0.187h2.444
		C161.834,39.879,162.027,40.116,161.943,40.584"/>
	<path clip-path="url(#SVGID_2_)" d="M120.473,59.521c-0.107,0.608-0.426,0.912-0.947,0.912h-13.842l-0.103,0.579
		c-0.437,2.46-0.264,4.2,0.522,5.222c0.784,1.023,2.13,1.533,4.036,1.533c1.215,0,2.515-0.042,3.896-0.124
		c1.381-0.083,2.568-0.192,3.56-0.332h0.208c0.165,0,0.31,0.041,0.434,0.124c0.123,0.084,0.165,0.236,0.126,0.456l-0.251,1.41
		c-0.049,0.276-0.143,0.49-0.28,0.642c-0.138,0.152-0.378,0.256-0.718,0.312c-1.228,0.22-2.439,0.392-3.635,0.517
		c-1.197,0.124-2.499,0.188-3.907,0.188c-1.189,0-2.321-0.159-3.397-0.478c-1.076-0.316-1.981-0.854-2.717-1.616
		c-0.734-0.76-1.257-1.773-1.571-3.045c-0.312-1.271-0.297-2.873,0.048-4.808l0.663-3.729c0.531-2.983,1.736-5.345,3.616-7.085
		c1.881-1.74,4.31-2.611,7.286-2.611c1.517,0,2.799,0.229,3.849,0.684c1.049,0.456,1.877,1.105,2.484,1.948
		c0.608,0.842,0.998,1.864,1.17,3.066c0.174,1.201,0.129,2.535-0.132,3.998L120.473,59.521z M117.225,57.284
		c0.418-2.347,0.266-4.019-0.455-5.013c-0.722-0.995-1.993-1.492-3.816-1.492c-1.796,0-3.264,0.525-4.404,1.575
		c-1.138,1.05-1.907,2.693-2.305,4.93l-0.067,0.373h10.981L117.225,57.284z"/>
	<path clip-path="url(#SVGID_2_)" d="M198.802,59.521c-0.107,0.608-0.425,0.912-0.947,0.912h-13.842l-0.104,0.579
		c-0.437,2.46-0.264,4.2,0.522,5.222c0.784,1.023,2.13,1.533,4.036,1.533c1.215,0,2.515-0.042,3.896-0.124
		c1.381-0.083,2.568-0.192,3.56-0.332h0.208c0.165,0,0.31,0.041,0.434,0.124c0.123,0.084,0.165,0.236,0.126,0.456l-0.251,1.41
		c-0.049,0.276-0.143,0.49-0.28,0.642c-0.138,0.152-0.378,0.256-0.718,0.312c-1.228,0.22-2.438,0.392-3.635,0.517
		c-1.197,0.124-2.499,0.188-3.907,0.188c-1.188,0-2.321-0.159-3.396-0.478c-1.076-0.316-1.981-0.854-2.718-1.616
		c-0.733-0.76-1.257-1.773-1.57-3.045c-0.313-1.271-0.297-2.873,0.048-4.808l0.663-3.729c0.53-2.983,1.735-5.345,3.616-7.085
		c1.881-1.74,4.31-2.611,7.285-2.611c1.517,0,2.8,0.229,3.849,0.684c1.049,0.456,1.877,1.105,2.484,1.948
		c0.608,0.842,0.998,1.864,1.17,3.066c0.174,1.201,0.13,2.535-0.132,3.998L198.802,59.521z M195.554,57.284
		c0.418-2.347,0.266-4.019-0.455-5.013c-0.721-0.995-1.993-1.492-3.816-1.492c-1.796,0-3.264,0.525-4.403,1.575
		c-1.139,1.05-1.907,2.693-2.306,4.93l-0.066,0.373h10.98L195.554,57.284z"/>
	<path clip-path="url(#SVGID_2_)" d="M162.099,70.13c-0.04,0.222-0.157,0.414-0.354,0.579c-0.193,0.166-0.401,0.249-0.624,0.249
		h-1.987c-0.223,0-0.4-0.083-0.536-0.249c-0.137-0.165-0.187-0.357-0.146-0.579l3.76-21.133c0.038-0.22,0.156-0.414,0.353-0.579
		c0.194-0.167,0.402-0.249,0.624-0.249h1.988c0.222,0,0.399,0.082,0.536,0.249c0.137,0.165,0.185,0.359,0.146,0.579L162.099,70.13z
		 M166.884,43.693c-0.039,0.221-0.156,0.414-0.353,0.58c-0.194,0.165-0.403,0.249-0.625,0.249h-2.112
		c-0.222,0-0.399-0.084-0.535-0.249c-0.137-0.166-0.186-0.359-0.146-0.58l0.59-3.315c0.039-0.222,0.158-0.414,0.353-0.58
		c0.194-0.167,0.402-0.249,0.624-0.249h2.112c0.222,0,0.401,0.082,0.536,0.249c0.138,0.166,0.186,0.358,0.146,0.58L166.884,43.693z"
		/>
	<path clip-path="url(#SVGID_2_)" d="M78.26,60.849c-0.271,1.518-0.711,2.899-1.317,4.143c-0.609,1.244-1.378,2.307-2.309,3.191
		c-0.931,0.885-2.02,1.567-3.266,2.051c-1.246,0.482-2.629,0.725-4.148,0.725c-1.52,0-2.81-0.242-3.869-0.725
		c-1.061-0.483-1.9-1.166-2.515-2.051c-0.617-0.885-1.008-1.947-1.173-3.191c-0.167-1.243-0.113-2.625,0.157-4.143l0.561-3.15
		c0.27-1.519,0.708-2.9,1.316-4.144c0.608-1.242,1.376-2.306,2.309-3.19c0.93-0.884,2.012-1.568,3.244-2.051
		c1.232-0.484,2.608-0.725,4.127-0.725c1.52,0,2.817,0.241,3.891,0.725c1.074,0.483,1.92,1.167,2.536,2.051
		c0.615,0.884,1.007,1.948,1.173,3.19c0.165,1.244,0.113,2.625-0.157,4.144L78.26,60.849z M75.174,57.698
		c0.378-2.127,0.235-3.812-0.428-5.054c-0.663-1.244-1.974-1.865-3.936-1.865c-1.934,0-3.452,0.615-4.555,1.843
		c-1.102,1.23-1.845,2.921-2.227,5.076l-0.561,3.15c-0.379,2.127-0.244,3.812,0.405,5.056c0.649,1.242,1.954,1.864,3.915,1.864
		c1.934,0,3.459-0.614,4.576-1.846c1.117-1.228,1.867-2.921,2.25-5.074L75.174,57.698z"/>
	<path clip-path="url(#SVGID_2_)" d="M134.577,51.069c-0.968,0-1.923,0.131-2.867,0.393c-0.945,0.261-1.998,0.71-3.16,1.343
		l-3.083,17.326c-0.039,0.222-0.157,0.415-0.351,0.58c-0.195,0.165-0.403,0.248-0.624,0.248h-2.03c-0.222,0-0.394-0.083-0.516-0.249
		c-0.123-0.165-0.164-0.359-0.125-0.58l3.759-21.133c0.04-0.22,0.149-0.415,0.332-0.58c0.181-0.166,0.382-0.249,0.603-0.249h1.948
		c0.22,0,0.392,0.085,0.514,0.253s0.163,0.365,0.123,0.589l-0.156,0.883c1.18-0.728,2.272-1.245,3.279-1.553
		c1.008-0.308,1.982-0.461,2.921-0.461c0.58,0,0.826,0.252,0.736,0.754l-0.306,1.722C135.489,50.831,135.157,51.069,134.577,51.069"
		/>
	<path clip-path="url(#SVGID_2_)" d="M177.438,70.752c-0.426,0.055-0.89,0.103-1.396,0.145c-0.503,0.042-0.95,0.063-1.335,0.063
		c-0.968,0-1.79-0.076-2.468-0.229c-0.677-0.152-1.206-0.435-1.589-0.849c-0.381-0.415-0.626-0.981-0.733-1.699
		c-0.106-0.718-0.06-1.645,0.142-2.776l2.572-14.462l-3.938-0.457c-0.517-0.054-0.734-0.302-0.654-0.744l0.198-1.119
		c0.089-0.498,0.394-0.747,0.92-0.747h4.019l0.724-4.06c0.084-0.47,0.381-0.746,0.893-0.829l2.213-0.331h0.124
		c0.166,0,0.302,0.062,0.403,0.186c0.102,0.124,0.134,0.297,0.094,0.518l-0.803,4.516h4.474c0.223,0,0.401,0.083,0.536,0.249
		c0.137,0.166,0.187,0.36,0.146,0.58l-0.25,1.41c-0.04,0.221-0.157,0.414-0.354,0.579c-0.193,0.166-0.401,0.249-0.624,0.249h-4.474
		l-2.567,14.426c-0.201,1.131-0.163,1.848,0.115,2.151c0.277,0.302,0.83,0.454,1.659,0.454h2.32c0.579,0,0.836,0.196,0.766,0.588
		l-0.262,1.473C178.239,70.43,177.949,70.668,177.438,70.752"/>
	<path clip-path="url(#SVGID_2_)" d="M97.242,70.419c-0.182,0.166-0.383,0.249-0.604,0.249h-2.072c-0.221,0-0.392-0.085-0.514-0.253
		s-0.164-0.363-0.123-0.588l0.142-0.801c-1.274,0.644-2.437,1.127-3.49,1.449c-1.052,0.322-2.199,0.482-3.443,0.482
		c-2.513,0-4.21-0.745-5.091-2.237c-0.882-1.491-1.076-3.618-0.585-6.381l2.425-13.633c0.04-0.22,0.157-0.414,0.352-0.579
		c0.195-0.167,0.402-0.25,0.624-0.25h1.989c0.221,0,0.4,0.083,0.536,0.248c0.136,0.167,0.185,0.358,0.146,0.579l-2.42,13.604
		c-0.187,1.049-0.253,1.924-0.198,2.628c0.055,0.703,0.231,1.26,0.531,1.673c0.3,0.414,0.716,0.711,1.25,0.89
		c0.534,0.18,1.202,0.27,2.004,0.27c0.884,0,1.822-0.152,2.815-0.455c0.994-0.303,2.016-0.69,3.066-1.158l3.104-17.451
		c0.039-0.221,0.157-0.412,0.352-0.579c0.194-0.165,0.402-0.248,0.624-0.248h2.03c0.221,0,0.393,0.083,0.516,0.25
		c0.122,0.165,0.164,0.359,0.124,0.579L97.573,69.84C97.534,70.062,97.423,70.255,97.242,70.419"/>
</g>
</svg>
