<?xml version="1.0" encoding="utf-8"?>
<!-- Generator: Adobe Illustrator 15.0.2, SVG Export Plug-In . SVG Version: 6.00 Build 0)  -->
<!DOCTYPE svg PUBLIC "-//W3C//DTD SVG 1.1//EN" "http://www.w3.org/Graphics/SVG/1.1/DTD/svg11.dtd">
<svg version="1.1" id="Calque_1" xmlns="http://www.w3.org/2000/svg" xmlns:xlink="http://www.w3.org/1999/xlink" x="0px" y="0px"
	 width="369.644px" height="206.535px" viewBox="0 0 369.644 206.535" enable-background="new 0 0 369.644 206.535"
	 xml:space="preserve">
<rect x="-0.009" y="0.007" fill="none" width="369.668" height="206.503"/>
<g>
	<g>
		<g>
			<g>
				<g>
					<g>
						<g>
							<path d="M119.422,78.293c-0.202,1.167-0.817,1.753-1.839,1.753H94.309l-0.025,0.144c-0.177,1.01-0.229,2.002-0.154,2.965
								c0.075,0.964,0.339,1.806,0.798,2.527c0.458,0.724,1.122,1.306,1.996,1.737c0.872,0.436,2.038,0.65,3.499,0.65
								c1.166,0,2.411-0.023,3.733-0.073c1.322-0.048,2.631-0.099,3.929-0.146c1.296-0.048,2.509-0.108,3.644-0.182
								c1.132-0.073,2.068-0.158,2.817-0.256h0.219c0.921,0,1.318,0.392,1.183,1.171l-0.979,5.588
								c-0.104,0.588-0.279,1.028-0.523,1.322c-0.246,0.294-0.699,0.515-1.356,0.661c-2.439,0.588-4.802,1.03-7.091,1.324
								c-2.289,0.294-5.014,0.44-8.176,0.44c-2.189,0-4.323-0.317-6.401-0.949c-2.079-0.629-3.866-1.676-5.359-3.136
								c-1.497-1.459-2.571-3.395-3.219-5.801c-0.651-2.408-0.668-5.365-0.055-8.866l0.893-5.109
								c0.51-2.917,1.387-5.567,2.632-7.951c1.243-2.383,2.8-4.404,4.671-6.055c1.867-1.655,4.025-2.931,6.469-3.833
								c2.443-0.9,5.125-1.351,8.044-1.351c2.965,0,5.497,0.488,7.587,1.461c2.092,0.972,3.743,2.311,4.954,4.012
								c1.21,1.704,1.987,3.722,2.333,6.057c0.344,2.336,0.275,4.888-0.208,7.659L119.422,78.293z M108.915,72.457
								c0.476-2.723,0.248-4.754-0.685-6.095c-0.933-1.334-2.422-2.004-4.464-2.004c-2.045,0-3.793,0.682-5.248,2.043
								c-1.454,1.361-2.415,3.38-2.881,6.055l-0.053,0.292h13.281L108.915,72.457z"/>
						</g>
					</g>
					<g>
						<g>
							<path d="M192.368,78.95c-0.511,2.919-1.372,5.546-2.583,7.879c-1.214,2.335-2.729,4.318-4.55,5.947
								c-1.821,1.631-3.941,2.896-6.366,3.795c-2.423,0.899-5.123,1.349-8.096,1.349c-2.972,0-5.514-0.45-7.623-1.349
								c-2.11-0.898-3.801-2.164-5.077-3.795c-1.274-1.629-2.11-3.612-2.504-5.947c-0.398-2.333-0.34-4.96,0.171-7.879l0.892-5.107
								c0.512-2.919,1.372-5.546,2.584-7.879c1.213-2.335,2.742-4.318,4.587-5.949c1.846-1.629,3.979-2.892,6.404-3.793
								c2.423-0.9,5.121-1.351,8.094-1.351c2.974,0,5.515,0.45,7.624,1.351c2.11,0.901,3.789,2.165,5.04,3.793
								c1.251,1.63,2.072,3.613,2.469,5.949c0.396,2.333,0.34,4.96-0.171,7.879L192.368,78.95z M181.442,73.843
								c1.039-5.936-0.596-8.901-4.9-8.901c-2.129,0-3.88,0.742-5.252,2.225c-1.371,1.484-2.317,3.709-2.836,6.676l-0.895,5.107
								c-0.517,2.967-0.353,5.206,0.497,6.714c0.849,1.507,2.337,2.262,4.466,2.262c4.306,0,6.981-2.994,8.028-8.976L181.442,73.843
								z"/>
						</g>
					</g>
					<g>
						<g>
							<path d="M235.589,61.512c-0.09,0.536-0.267,0.9-0.52,1.095c-0.251,0.194-0.61,0.365-1.074,0.508l-2.387,0.732
								c0.317,0.682,0.544,1.531,0.683,2.554c0.139,1.021,0.128,1.969-0.022,2.844l-0.104,0.584
								c-0.833,4.767-3.009,8.234-6.525,10.396c-3.515,2.165-8.144,3.25-13.882,3.25c-1.703,0-3.192-0.113-4.468-0.332
								c-1.273-0.219-2.251-0.475-2.929-0.765c-0.434,0.244-0.745,0.498-0.937,0.765c-0.194,0.269-0.32,0.574-0.379,0.914
								c-0.104,0.583-0.033,1.021,0.207,1.313s0.781,0.534,1.625,0.728l7.925,1.826c3.042,0.68,5.602,1.35,7.675,2.006
								c2.074,0.657,3.703,1.41,4.894,2.262c1.189,0.851,1.971,1.87,2.347,3.065c0.377,1.19,0.411,2.661,0.104,4.412l-0.103,0.583
								c-1.384,7.928-8.451,11.894-21.195,11.894c-6.08,0-10.511-1.022-13.292-3.065c-2.779-2.041-3.833-4.985-3.161-8.829
								l0.102-0.583c0.266-1.508,0.855-2.942,1.773-4.304c0.919-1.361,2.265-2.65,4.034-3.868c-1.186-0.729-1.958-1.739-2.314-3.027
								c-0.361-1.289-0.434-2.542-0.222-3.757c0.239-1.362,0.752-2.555,1.539-3.578c0.788-1.02,1.708-1.896,2.758-2.624
								c-0.99-1.023-1.605-2.358-1.851-4.014c-0.248-1.653-0.242-3.21,0.013-4.67l0.102-0.584c0.723-4.132,2.754-7.465,6.089-9.996
								c3.338-2.53,8.19-3.793,14.563-3.793h18.168c0.534,0,0.942,0.182,1.219,0.547c0.273,0.365,0.369,0.815,0.273,1.349
								L235.589,61.512z M215.781,99.672c0.062-0.342,0.036-0.669-0.082-0.984c-0.115-0.316-0.413-0.621-0.899-0.914
								c-0.483-0.291-1.186-0.583-2.107-0.874c-0.921-0.294-2.178-0.632-3.761-1.024l-5.195-1.167
								c-0.548,0.634-1.02,1.304-1.409,2.008c-0.392,0.707-0.697,1.689-0.917,2.955l-0.104,0.583
								c-0.221,1.266,0.125,2.202,1.041,2.811c0.915,0.605,2.783,0.911,5.605,0.911c1.507,0,2.736-0.085,3.691-0.256
								c0.953-0.171,1.718-0.426,2.286-0.766c0.573-0.342,0.981-0.742,1.232-1.203c0.251-0.465,0.425-0.961,0.518-1.498
								L215.781,99.672z M220.738,69.246c0.264-1.507,0.046-2.761-0.655-3.755c-0.701-0.999-2.34-1.499-4.92-1.499
								c-2.577,0-4.417,0.5-5.514,1.499c-1.1,0.995-1.779,2.248-2.044,3.755l-0.102,0.584c-0.111,0.634-0.135,1.253-0.07,1.86
								c0.063,0.611,0.295,1.158,0.695,1.642c0.401,0.487,1.005,0.877,1.806,1.169c0.798,0.29,1.903,0.436,3.313,0.436
								c2.58,0,4.389-0.461,5.425-1.385c1.038-0.923,1.69-2.164,1.965-3.722L220.738,69.246z"/>
						</g>
					</g>
					<g>
						<g>
							<path d="M269.133,78.293c-0.203,1.167-0.818,1.753-1.838,1.753h-23.276l-0.025,0.144c-0.177,1.01-0.229,2.002-0.154,2.965
								c0.075,0.964,0.342,1.806,0.799,2.527c0.457,0.724,1.122,1.306,1.996,1.737c0.871,0.436,2.039,0.65,3.498,0.65
								c1.166,0,2.411-0.023,3.732-0.073c1.322-0.048,2.632-0.099,3.931-0.146c1.295-0.048,2.511-0.108,3.643-0.182
								c1.133-0.073,2.068-0.158,2.817-0.256h0.219c0.922,0,1.317,0.392,1.183,1.171l-0.979,5.588
								c-0.104,0.588-0.279,1.028-0.522,1.322c-0.247,0.294-0.699,0.515-1.358,0.661c-2.436,0.588-4.8,1.03-7.089,1.324
								c-2.288,0.294-5.016,0.44-8.176,0.44c-2.189,0-4.322-0.317-6.401-0.949c-2.079-0.629-3.866-1.676-5.361-3.136
								c-1.495-1.459-2.568-3.395-3.217-5.801c-0.648-2.408-0.667-5.365-0.055-8.866l0.893-5.109
								c0.511-2.917,1.387-5.567,2.631-7.951c1.243-2.383,2.802-4.404,4.672-6.055c1.867-1.655,4.026-2.931,6.47-3.833
								c2.443-0.9,5.125-1.351,8.042-1.351c2.968,0,5.498,0.488,7.59,1.461c2.092,0.972,3.743,2.311,4.953,4.012
								c1.209,1.704,1.988,3.722,2.333,6.057c0.346,2.336,0.277,4.888-0.207,7.659L269.133,78.293z M258.625,72.457
								c0.478-2.723,0.248-4.754-0.686-6.095c-0.933-1.334-2.422-2.004-4.465-2.004s-3.791,0.682-5.246,2.043
								c-1.453,1.361-2.415,3.38-2.882,6.055l-0.052,0.292h13.28L258.625,72.457z"/>
						</g>
					</g>
					<g>
						<g>
							<path d="M296.627,64.281c-0.246,0.296-0.539,0.439-0.88,0.439h-0.582c-1.801,0-3.523,0.244-5.163,0.73
								c-1.643,0.486-3.208,1.093-4.697,1.82l-4.977,28.464c-0.07,0.389-0.276,0.742-0.622,1.057
								c-0.347,0.315-0.716,0.474-1.104,0.474h-8.828c-0.391,0-0.717-0.159-0.977-0.474c-0.264-0.319-0.358-0.671-0.291-1.059
								l6.789-38.816c0.068-0.39,0.273-0.73,0.617-1.022c0.342-0.293,0.708-0.438,1.098-0.438h8.682c0.39,0,0.704,0.148,0.945,0.442
								c0.242,0.294,0.328,0.636,0.258,1.03l-0.258,1.47c1.559-1.126,3.256-1.996,5.09-2.608c1.833-0.613,3.625-0.919,5.378-0.919
								c0.388,0,0.703,0.147,0.943,0.442c0.242,0.294,0.326,0.638,0.258,1.03l-1.222,6.983
								C297.025,63.668,296.872,63.987,296.627,64.281z"/>
						</g>
					</g>
				</g>
			</g>
			<g>
				<g>
					<g>
						<g>
							<path d="M151.08,96.948c-0.609,0.146-1.368,0.27-2.352,0.407c-1.199,0.165-2.563,0.311-3.929,0.413
								c-1.122,0.085-2.79,0.129-3.762,0.129c-2.337,0-4.551-0.194-6.646-0.584c-2.096-0.388-3.857-1.142-5.29-2.26
								c-1.43-1.122-2.448-2.71-3.053-4.781c-0.606-2.066-0.613-4.754-0.025-8.061l6.706-37.724c0.069-0.388,0.275-0.728,0.62-1.02
								c0.344-0.292,0.708-0.44,1.099-0.44h9.558c0.388,0,0.705,0.148,0.943,0.44c0.242,0.292,0.327,0.632,0.256,1.02l-6.706,37.724
								c-0.338,1.897-0.215,3.198,0.365,3.903c0.579,0.705,1.72,1.06,3.424,1.06h10.532c0.387,0,0.702,0.144,0.944,0.436
								c0.238,0.292,0.326,0.634,0.255,1.021l-1.206,6.785C152.666,96.244,152.09,96.755,151.08,96.948z"/>
						</g>
					</g>
				</g>
			</g>
			<g>
				<path d="M83.681,49.12c-2.096-0.576-4.312-1.06-6.587-1.438c-2.263-0.373-5.14-0.563-8.549-0.563
					c-5.901,0-10.523,1.124-13.735,3.342c-3.165,2.185-5.15,5.438-5.905,9.667c-0.479,2.707-0.258,5.114,0.659,7.156
					c0.917,2.048,2.436,3.755,4.508,5.077l10.303,6.622c1.215,0.773,2.021,1.471,2.463,2.134c0.492,0.74,0.661,1.551,0.508,2.407
					c-0.246,1.389-0.854,2.442-1.805,3.126c-0.928,0.669-2.505,0.995-4.823,0.995c-0.722,0-1.697-0.031-2.894-0.089
					c-1.206-0.059-2.521-0.148-3.912-0.269c-1.378-0.115-2.801-0.25-4.227-0.397c-1.376-0.143-2.663-0.304-3.82-0.481h-0.291
					c-0.324,0-0.567,0.085-0.768,0.27c-0.219,0.202-0.346,0.435-0.4,0.731l-1.272,7.152c-0.112,0.637,0.069,0.915,0.724,1.095
					c1.03,0.288,2.202,0.548,3.484,0.779c1.279,0.229,2.635,0.436,4.03,0.611c1.38,0.173,2.763,0.306,4.108,0.393
					c1.343,0.086,2.633,0.13,3.843,0.13c3.13,0,5.934-0.374,8.33-1.112c2.385-0.734,4.46-1.747,6.17-3.011
					c1.693-1.251,3.073-2.758,4.104-4.483c1.032-1.73,1.731-3.599,2.078-5.552c0.197-1.111,0.287-2.246,0.262-3.37
					c-0.023-1.07-0.255-2.144-0.686-3.192c-0.437-1.058-1.108-2.109-1.999-3.126c-0.897-1.024-2.148-2.059-3.714-3.076l-9.844-6.275
					c-0.855-0.575-1.485-1.095-1.929-1.593c-0.556-0.626-0.767-1.429-0.609-2.321c0.283-1.591,1.183-2.31,1.886-2.634
					c0.885-0.407,2.213-0.604,4.056-0.604c1.131,0,2.433,0.045,3.869,0.134c1.409,0.087,2.824,0.191,4.201,0.311
					c1.37,0.119,2.65,0.254,3.803,0.4c1.122,0.144,2.002,0.247,2.617,0.302h0.228c0.413,0,0.827-0.077,0.992-1l1.271-7.151
					C84.521,49.578,84.337,49.303,83.681,49.12z"/>
			</g>
			<path d="M326.55,65.276c0-5.908-4.79-10.699-10.698-10.699s-10.697,4.791-10.697,10.699c0,2.02,0.561,3.908,1.532,5.519
				l-4.688,4.196c0,0-0.361,0.309-0.191,0.694c0.141,0.315,0.537,0.288,0.537,0.288h13.558v-0.001
				C321.787,75.945,326.55,71.168,326.55,65.276z"/>
		</g>
	</g>
	<g>
		<g>
			<g>
				<g>
					<path d="M92.055,124.062c-0.034,0.197-0.09,0.367-0.164,0.513l-16.065,34.809c-0.783,1.656-1.808,2.769-3.077,3.329
						c-1.27,0.56-2.686,0.839-4.246,0.839c-1.561,0-2.875-0.279-3.946-0.839c-1.07-0.561-1.702-1.673-1.895-3.329l-3.68-34.809
						c-0.023-0.146-0.017-0.315,0.019-0.513c0.146-0.827,0.609-1.243,1.39-1.243h4.022c0.633,0,1.014,0.468,1.143,1.394l2.726,31.95
						c0.086,0.879,0.204,1.451,0.351,1.722c0.146,0.269,0.416,0.402,0.806,0.402c0.341,0,0.645-0.134,0.913-0.402
						c0.267-0.271,0.601-0.843,1.001-1.722l14.093-31.95c0.457-0.926,1.002-1.394,1.637-1.394h4.022
						C91.885,122.818,92.203,123.234,92.055,124.062z"/>
					<path d="M114.633,161.578c-0.069,0.39-0.276,0.731-0.622,1.022c-0.345,0.293-0.711,0.438-1.101,0.438h-3.365
						c-0.389,0-0.705-0.146-0.945-0.438c-0.24-0.291-0.326-0.633-0.257-1.022l0.286-1.609c-1.937,1.023-3.894,1.878-5.866,2.56
						c-1.976,0.681-3.985,1.022-6.033,1.022c-1.561,0-3.028-0.184-4.401-0.548c-1.373-0.367-2.525-1.011-3.458-1.938
						c-0.932-0.924-1.592-2.145-1.982-3.654c-0.388-1.512-0.38-3.413,0.028-5.705l0.157-0.879c0.347-1.948,0.956-3.668,1.832-5.154
						c0.872-1.485,2.094-2.729,3.661-3.729c1.568-0.999,3.516-1.744,5.846-2.231c2.327-0.485,5.125-0.731,8.393-0.731h5.411
						l0.52-2.925c0.547-3.073,0.343-5.216-0.609-6.437c-0.954-1.217-2.868-1.827-5.744-1.827c-2.389,0-4.497,0.061-6.322,0.184
						c-1.826,0.123-3.483,0.255-4.971,0.402h-0.366c-0.341,0-0.633-0.076-0.875-0.222c-0.243-0.146-0.321-0.46-0.234-0.95
						l0.455-2.559c0.139-0.78,0.734-1.243,1.783-1.389c1.554-0.246,3.239-0.463,5.054-0.659c1.814-0.192,3.964-0.293,6.451-0.293
						c5.07,0,8.496,1.221,10.283,3.658c1.784,2.438,2.296,5.801,1.532,10.091L114.633,161.578z M111.397,143.587h-5.411
						c-2.194,0-4.046,0.135-5.557,0.402c-1.51,0.269-2.73,0.683-3.658,1.241c-0.929,0.562-1.644,1.293-2.146,2.196
						c-0.501,0.903-0.869,2.011-1.104,3.328l-0.157,0.876c-0.467,2.633-0.197,4.401,0.813,5.303c1.01,0.903,2.586,1.353,4.732,1.353
						c1.706,0,3.381-0.243,5.029-0.73c1.647-0.488,3.435-1.22,5.362-2.194L111.397,143.587z"/>
					<path d="M143.986,162.236c-0.238,0.243-0.659,0.413-1.261,0.51c-1.263,0.246-2.699,0.438-4.309,0.586
						c-1.61,0.146-3.27,0.219-4.976,0.219c-2.486,0-4.617-0.427-6.389-1.279c-1.776-0.852-3.196-2.048-4.263-3.582
						c-1.069-1.537-1.748-3.402-2.04-5.596c-0.293-2.191-0.201-4.629,0.276-7.311l1.014-5.705c0.478-2.684,1.252-5.118,2.326-7.314
						c1.072-2.194,2.404-4.06,3.993-5.594c1.589-1.536,3.435-2.73,5.537-3.584c2.101-0.853,4.396-1.279,6.882-1.279
						c1.706,0,3.339,0.073,4.897,0.221c1.557,0.146,2.924,0.34,4.101,0.584c0.568,0.099,0.929,0.257,1.085,0.475
						c0.156,0.221,0.186,0.599,0.09,1.134l-0.468,2.634c-0.069,0.39-0.242,0.669-0.516,0.841c-0.274,0.17-0.582,0.255-0.922,0.255
						h-0.293c-1.574-0.192-3.012-0.329-4.316-0.402c-1.303-0.071-2.857-0.109-4.661-0.109c-2.925,0-5.356,0.988-7.291,2.963
						c-1.937,1.973-3.273,5.034-4.01,9.178l-1.015,5.705c-0.737,4.142-0.502,7.201,0.708,9.176c1.208,1.975,3.299,2.961,6.274,2.961
						c1.804,0,3.371-0.036,4.699-0.109c1.33-0.072,2.816-0.206,4.459-0.4h0.293c0.34,0,0.618,0.082,0.831,0.255
						c0.213,0.172,0.286,0.452,0.217,0.841l-0.469,2.632C144.386,161.625,144.224,161.992,143.986,162.236z"/>
					<path d="M175.55,161.578c-0.069,0.39-0.276,0.731-0.622,1.022c-0.343,0.293-0.712,0.438-1.102,0.438h-3.363
						c-0.392,0-0.707-0.146-0.946-0.438c-0.241-0.291-0.327-0.633-0.257-1.022l0.286-1.609c-1.937,1.023-3.894,1.878-5.866,2.56
						c-1.975,0.681-3.985,1.022-6.032,1.022c-1.561,0-3.028-0.184-4.4-0.548c-1.373-0.367-2.526-1.011-3.458-1.938
						c-0.933-0.924-1.593-2.145-1.983-3.654c-0.388-1.512-0.38-3.413,0.028-5.705l0.155-0.879c0.347-1.948,0.957-3.668,1.832-5.154
						c0.874-1.485,2.096-2.729,3.662-3.729c1.568-0.999,3.516-1.744,5.846-2.231c2.327-0.485,5.125-0.731,8.393-0.731h5.411
						l0.521-2.925c0.546-3.073,0.342-5.216-0.61-6.437c-0.954-1.217-2.868-1.827-5.744-1.827c-2.389,0-4.497,0.061-6.322,0.184
						c-1.826,0.123-3.483,0.255-4.971,0.402h-0.366c-0.341,0-0.633-0.076-0.875-0.222c-0.243-0.146-0.32-0.46-0.234-0.95
						l0.455-2.559c0.139-0.78,0.734-1.243,1.783-1.389c1.554-0.246,3.239-0.463,5.054-0.659c1.814-0.192,3.965-0.293,6.452-0.293
						c5.069,0,8.496,1.221,10.281,3.658c1.783,2.438,2.296,5.801,1.533,10.091L175.55,161.578z M172.314,143.587h-5.411
						c-2.194,0-4.046,0.135-5.557,0.402c-1.511,0.269-2.729,0.683-3.657,1.241c-0.93,0.562-1.645,1.293-2.147,2.196
						c-0.501,0.903-0.87,2.011-1.104,3.328l-0.157,0.876c-0.467,2.633-0.197,4.401,0.813,5.303c1.01,0.903,2.586,1.353,4.732,1.353
						c1.707,0,3.381-0.243,5.029-0.73c1.646-0.488,3.435-1.22,5.363-2.194L172.314,143.587z"/>
					<path d="M210.614,162.601c-0.345,0.293-0.711,0.438-1.101,0.438h-3.511c-0.392,0-0.704-0.146-0.946-0.438
						c-0.241-0.288-0.324-0.631-0.257-1.02l4.271-24.012c0.329-1.848,0.445-3.393,0.349-4.632c-0.099-1.243-0.409-2.228-0.935-2.956
						c-0.53-0.729-1.279-1.252-2.245-1.567c-0.969-0.315-2.134-0.477-3.498-0.477c-1.561,0-3.22,0.269-4.971,0.803
						c-1.754,0.534-3.557,1.217-5.41,2.044l-5.478,30.797c-0.069,0.389-0.276,0.731-0.621,1.02
						c-0.344,0.293-0.711,0.438-1.103,0.438h-3.582c-0.392,0-0.694-0.146-0.909-0.438c-0.216-0.291-0.29-0.633-0.221-1.022
						l6.636-37.295c0.069-0.392,0.264-0.731,0.583-1.024c0.32-0.293,0.675-0.44,1.066-0.44h3.656c0.389,0,0.691,0.149,0.907,0.447
						c0.215,0.298,0.288,0.645,0.218,1.038l-0.252,1.411c2.251-1.137,4.305-1.988,6.161-2.557c1.854-0.568,3.88-0.852,6.074-0.852
						c4.435,0,7.431,1.316,8.987,3.949c1.555,2.632,1.898,6.387,1.031,11.262l-4.28,24.061
						C211.167,161.968,210.959,162.31,210.614,162.601z"/>
					<path d="M240.59,162.236c-0.239,0.243-0.659,0.413-1.261,0.51c-1.264,0.246-2.702,0.438-4.31,0.586
						c-1.61,0.146-3.27,0.219-4.977,0.219c-2.486,0-4.615-0.427-6.389-1.279c-1.775-0.852-3.195-2.048-4.263-3.582
						c-1.068-1.537-1.746-3.402-2.039-5.596c-0.293-2.191-0.201-4.629,0.275-7.311l1.015-5.705c0.479-2.684,1.253-5.118,2.326-7.314
						c1.073-2.194,2.403-4.06,3.994-5.594c1.588-1.536,3.435-2.73,5.537-3.584c2.1-0.853,4.395-1.279,6.881-1.279
						c1.706,0,3.339,0.073,4.897,0.221c1.557,0.146,2.923,0.34,4.1,0.584c0.567,0.099,0.93,0.257,1.087,0.475
						c0.156,0.221,0.186,0.599,0.089,1.134l-0.467,2.634c-0.069,0.39-0.242,0.669-0.517,0.841c-0.273,0.17-0.582,0.255-0.922,0.255
						h-0.293c-1.574-0.192-3.013-0.329-4.316-0.402c-1.304-0.071-2.855-0.109-4.66-0.109c-2.925,0-5.355,0.988-7.29,2.963
						c-1.937,1.973-3.272,5.034-4.01,9.178l-1.016,5.705c-0.738,4.142-0.501,7.201,0.707,9.176c1.21,1.975,3.301,2.961,6.274,2.961
						c1.803,0,3.373-0.036,4.701-0.109c1.328-0.072,2.813-0.206,4.459-0.4h0.291c0.34,0,0.619,0.082,0.832,0.255
						c0.215,0.172,0.286,0.452,0.217,0.841l-0.468,2.632C240.988,161.625,240.827,161.992,240.59,162.236z"/>
					<path d="M278.316,143.368c-0.192,1.073-0.751,1.607-1.673,1.607h-24.429L252.031,146c-0.77,4.341-0.465,7.411,0.921,9.214
						c1.387,1.807,3.762,2.706,7.125,2.706c2.145,0,4.438-0.071,6.877-0.22c2.439-0.145,4.533-0.34,6.282-0.583h0.366
						c0.293,0,0.546,0.071,0.765,0.217c0.217,0.147,0.293,0.418,0.224,0.808l-0.442,2.484c-0.087,0.489-0.251,0.865-0.494,1.134
						c-0.244,0.269-0.664,0.451-1.269,0.55c-2.164,0.39-4.302,0.693-6.413,0.913c-2.113,0.221-4.41,0.328-6.897,0.328
						c-2.098,0-4.092-0.279-5.993-0.839c-1.9-0.561-3.497-1.514-4.795-2.854c-1.297-1.342-2.221-3.131-2.772-5.376
						c-0.553-2.24-0.523-5.069,0.082-8.482l1.17-6.581c0.939-5.265,3.066-9.433,6.385-12.506c3.319-3.07,7.605-4.606,12.859-4.606
						c2.675,0,4.938,0.404,6.789,1.207s3.312,1.95,4.386,3.438c1.073,1.487,1.762,3.292,2.066,5.412
						c0.304,2.12,0.226,4.473-0.232,7.056L278.316,143.368z M272.583,139.419c0.735-4.145,0.47-7.094-0.803-8.85
						c-1.272-1.753-3.518-2.632-6.733-2.632c-3.172,0-5.761,0.926-7.771,2.779c-2.013,1.852-3.37,4.753-4.072,8.702l-0.116,0.659
						h19.377L272.583,139.419z"/>
					<path d="M305.861,152.946c-0.328,1.854-0.943,3.45-1.84,4.792c-0.897,1.34-2.018,2.438-3.363,3.292
						c-1.347,0.853-2.898,1.485-4.652,1.898c-1.758,0.414-3.658,0.622-5.707,0.622c-0.682,0-1.496-0.011-2.441-0.036
						c-0.946-0.026-1.938-0.084-2.966-0.183c-1.033-0.099-2.073-0.208-3.124-0.329c-1.049-0.121-1.992-0.304-2.827-0.548
						c-0.981-0.244-1.406-0.731-1.276-1.463l0.456-2.558c0.061-0.343,0.229-0.611,0.51-0.808c0.277-0.192,0.613-0.293,1.002-0.293
						h0.293c0.861,0.101,1.805,0.196,2.836,0.293c1.03,0.101,2.077,0.184,3.138,0.257c1.058,0.074,2.046,0.137,2.965,0.182
						c0.917,0.052,1.718,0.076,2.399,0.076c2.387,0,4.256-0.367,5.606-1.099c1.349-0.731,2.201-2.095,2.557-4.097
						c0.199-1.12-0.018-2.094-0.651-2.923c-0.63-0.827-1.883-1.876-3.754-3.145l-6.604-4.388c-1.999-1.366-3.538-2.864-4.611-4.499
						c-1.075-1.631-1.404-3.619-0.988-5.96c0.34-1.901,0.959-3.471,1.865-4.717c0.901-1.243,2.004-2.24,3.31-2.999
						c1.306-0.753,2.786-1.279,4.45-1.572c1.659-0.292,3.439-0.438,5.343-0.438c2.046,0,4.019,0.087,5.915,0.257
						c1.895,0.17,3.668,0.402,5.322,0.695c0.899,0.146,1.277,0.633,1.132,1.461l-0.43,2.415c-0.147,0.829-0.638,1.243-1.467,1.243
						h-0.22c-1.252-0.099-2.92-0.222-5.018-0.367c-2.093-0.147-4.164-0.219-6.213-0.219c-2.048,0-3.734,0.244-5.065,0.731
						c-1.33,0.487-2.16,1.657-2.488,3.509c-0.202,1.123,0.042,2.084,0.729,2.89c0.685,0.805,1.794,1.694,3.328,2.67l6.472,4.313
						c2.701,1.805,4.486,3.561,5.354,5.267C306,148.878,306.244,150.802,305.861,152.946z"/>
				</g>
			</g>
		</g>
	</g>
</g>
</svg>
