<?xml version="1.0" encoding="utf-8"?>
<!-- Generator: Adobe Illustrator 15.0.2, SVG Export Plug-In . SVG Version: 6.00 Build 0)  -->
<!DOCTYPE svg PUBLIC "-//W3C//DTD SVG 1.1//EN" "http://www.w3.org/Graphics/SVG/1.1/DTD/svg11.dtd">
<svg version="1.1" id="Calque_1" xmlns="http://www.w3.org/2000/svg" xmlns:xlink="http://www.w3.org/1999/xlink" x="0px" y="0px"
	 width="369.644px" height="155.197px" viewBox="0 0 369.644 155.197" enable-background="new 0 0 369.644 155.197"
	 xml:space="preserve">
<g>
	<g>
		<g>
			<g>
				<g>
					<g>
						<path fill="#FFFFFF" d="M119.422,78.293c-0.202,1.167-0.817,1.753-1.839,1.753H94.309l-0.025,0.144
							c-0.177,1.01-0.229,2.002-0.154,2.965c0.075,0.964,0.339,1.807,0.798,2.527c0.458,0.724,1.122,1.306,1.996,1.737
							c0.872,0.436,2.038,0.65,3.499,0.65c1.166,0,2.411-0.022,3.733-0.073c1.322-0.048,2.631-0.098,3.929-0.146
							c1.296-0.048,2.509-0.107,3.644-0.182c1.132-0.072,2.068-0.157,2.817-0.255h0.219c0.921,0,1.318,0.392,1.183,1.171
							l-0.979,5.589c-0.104,0.588-0.279,1.027-0.523,1.321c-0.246,0.294-0.699,0.516-1.356,0.661
							c-2.439,0.588-4.802,1.03-7.091,1.324c-2.289,0.294-5.014,0.439-8.176,0.439c-2.189,0-4.323-0.316-6.401-0.948
							c-2.079-0.63-3.866-1.677-5.359-3.136c-1.497-1.46-2.571-3.395-3.219-5.802c-0.651-2.407-0.668-5.364-0.055-8.865l0.893-5.109
							c0.51-2.917,1.387-5.567,2.632-7.951c1.243-2.383,2.8-4.404,4.671-6.055c1.867-1.655,4.025-2.931,6.469-3.833
							c2.443-0.9,5.125-1.351,8.044-1.351c2.965,0,5.497,0.488,7.587,1.461c2.092,0.972,3.743,2.311,4.954,4.012
							c1.21,1.704,1.987,3.722,2.333,6.057c0.344,2.336,0.275,4.888-0.208,7.659L119.422,78.293z M108.915,72.457
							c0.476-2.723,0.248-4.754-0.685-6.095c-0.933-1.334-2.422-2.004-4.464-2.004c-2.045,0-3.793,0.682-5.248,2.043
							c-1.454,1.361-2.415,3.38-2.881,6.055l-0.053,0.292h13.281L108.915,72.457z"/>
					</g>
				</g>
				<g>
					<g>
						<path fill="#FFFFFF" d="M192.368,78.95c-0.511,2.919-1.372,5.546-2.583,7.879c-1.214,2.336-2.729,4.318-4.55,5.947
							c-1.821,1.631-3.941,2.896-6.366,3.795c-2.423,0.898-5.123,1.349-8.096,1.349c-2.972,0-5.514-0.45-7.623-1.349
							c-2.11-0.898-3.801-2.164-5.077-3.795c-1.274-1.629-2.11-3.611-2.504-5.947c-0.398-2.333-0.34-4.96,0.171-7.879l0.892-5.107
							c0.512-2.919,1.372-5.546,2.584-7.879c1.213-2.335,2.742-4.318,4.587-5.949c1.846-1.629,3.979-2.892,6.404-3.793
							c2.423-0.9,5.121-1.351,8.094-1.351c2.974,0,5.515,0.45,7.624,1.351c2.11,0.901,3.789,2.165,5.04,3.793
							c1.251,1.63,2.072,3.613,2.469,5.949c0.396,2.333,0.34,4.96-0.171,7.879L192.368,78.95z M181.442,73.843
							c1.039-5.936-0.596-8.901-4.9-8.901c-2.129,0-3.88,0.742-5.252,2.225c-1.371,1.484-2.317,3.709-2.836,6.676l-0.895,5.107
							c-0.517,2.967-0.353,5.206,0.497,6.714c0.849,1.507,2.337,2.263,4.466,2.263c4.306,0,6.981-2.995,8.028-8.977L181.442,73.843z
							"/>
					</g>
				</g>
				<g>
					<g>
						<path fill="#FFFFFF" d="M235.589,61.512c-0.09,0.536-0.267,0.9-0.52,1.095c-0.251,0.194-0.61,0.365-1.074,0.508l-2.387,0.732
							c0.317,0.682,0.544,1.531,0.683,2.554c0.139,1.021,0.128,1.969-0.022,2.844l-0.104,0.584
							c-0.833,4.767-3.009,8.234-6.525,10.397c-3.515,2.164-8.144,3.25-13.882,3.25c-1.703,0-3.192-0.112-4.468-0.331
							c-1.273-0.219-2.251-0.476-2.929-0.766c-0.434,0.244-0.745,0.498-0.937,0.766c-0.194,0.269-0.32,0.573-0.379,0.913
							c-0.104,0.584-0.033,1.021,0.207,1.313s0.781,0.534,1.625,0.728l7.925,1.827c3.042,0.68,5.602,1.35,7.675,2.006
							c2.074,0.657,3.703,1.409,4.894,2.262c1.189,0.851,1.971,1.87,2.347,3.065c0.377,1.19,0.411,2.66,0.104,4.412l-0.103,0.583
							c-1.384,7.929-8.451,11.895-21.195,11.895c-6.08,0-10.511-1.022-13.292-3.065c-2.779-2.041-3.833-4.985-3.161-8.829
							l0.102-0.583c0.266-1.508,0.855-2.942,1.773-4.304c0.919-1.361,2.265-2.65,4.034-3.868c-1.186-0.729-1.958-1.738-2.314-3.027
							c-0.361-1.289-0.434-2.542-0.222-3.758c0.239-1.361,0.752-2.554,1.539-3.578c0.788-1.019,1.708-1.895,2.758-2.623
							c-0.99-1.023-1.605-2.358-1.851-4.014c-0.248-1.653-0.242-3.21,0.013-4.67l0.102-0.584c0.723-4.132,2.754-7.465,6.089-9.996
							c3.338-2.53,8.19-3.793,14.563-3.793h18.168c0.534,0,0.942,0.182,1.219,0.547c0.273,0.365,0.369,0.815,0.273,1.349
							L235.589,61.512z M215.781,99.672c0.062-0.342,0.036-0.669-0.082-0.984c-0.115-0.316-0.413-0.621-0.899-0.913
							c-0.483-0.292-1.186-0.584-2.107-0.874c-0.921-0.294-2.178-0.632-3.761-1.023l-5.195-1.168
							c-0.548,0.634-1.02,1.304-1.409,2.008c-0.392,0.707-0.697,1.689-0.917,2.955l-0.104,0.583
							c-0.221,1.267,0.125,2.202,1.041,2.812c0.915,0.604,2.783,0.911,5.605,0.911c1.507,0,2.736-0.085,3.691-0.256
							c0.953-0.171,1.718-0.427,2.286-0.766c0.573-0.342,0.981-0.742,1.232-1.203c0.251-0.465,0.425-0.961,0.518-1.498
							L215.781,99.672z M220.738,69.246c0.264-1.507,0.046-2.761-0.655-3.755c-0.701-0.999-2.34-1.499-4.92-1.499
							c-2.577,0-4.417,0.5-5.514,1.499c-1.1,0.995-1.779,2.248-2.044,3.755l-0.102,0.584c-0.111,0.634-0.135,1.253-0.07,1.86
							c0.063,0.611,0.295,1.158,0.695,1.642c0.401,0.487,1.005,0.877,1.806,1.169c0.798,0.29,1.903,0.436,3.313,0.436
							c2.58,0,4.389-0.461,5.425-1.385c1.038-0.923,1.69-2.164,1.965-3.722L220.738,69.246z"/>
					</g>
				</g>
				<g>
					<g>
						<path fill="#FFFFFF" d="M269.133,78.293c-0.203,1.167-0.818,1.753-1.838,1.753h-23.276l-0.025,0.144
							c-0.177,1.01-0.229,2.002-0.154,2.965c0.075,0.964,0.342,1.807,0.799,2.527c0.457,0.724,1.122,1.306,1.996,1.737
							c0.871,0.436,2.039,0.65,3.498,0.65c1.166,0,2.411-0.022,3.732-0.073c1.322-0.048,2.632-0.098,3.931-0.146
							c1.295-0.048,2.511-0.107,3.643-0.182c1.133-0.072,2.068-0.157,2.817-0.255h0.219c0.922,0,1.317,0.392,1.183,1.171
							l-0.979,5.589c-0.104,0.588-0.279,1.027-0.522,1.321c-0.247,0.294-0.699,0.516-1.358,0.661c-2.436,0.588-4.8,1.03-7.089,1.324
							c-2.288,0.294-5.016,0.439-8.176,0.439c-2.189,0-4.322-0.316-6.401-0.948c-2.079-0.63-3.866-1.677-5.361-3.136
							c-1.495-1.46-2.568-3.395-3.217-5.802s-0.667-5.364-0.055-8.865l0.893-5.109c0.511-2.917,1.387-5.567,2.631-7.951
							c1.243-2.383,2.802-4.404,4.672-6.055c1.867-1.655,4.026-2.931,6.47-3.833c2.443-0.9,5.125-1.351,8.042-1.351
							c2.968,0,5.498,0.488,7.59,1.461c2.092,0.972,3.743,2.311,4.953,4.012c1.209,1.704,1.988,3.722,2.333,6.057
							c0.346,2.336,0.277,4.888-0.207,7.659L269.133,78.293z M258.625,72.457c0.478-2.723,0.248-4.754-0.686-6.095
							c-0.933-1.334-2.422-2.004-4.465-2.004s-3.791,0.682-5.246,2.043c-1.453,1.361-2.415,3.38-2.882,6.055l-0.052,0.292h13.28
							L258.625,72.457z"/>
					</g>
				</g>
				<g>
					<g>
						<path fill="#FFFFFF" d="M296.627,64.281c-0.246,0.296-0.539,0.439-0.88,0.439h-0.582c-1.801,0-3.523,0.244-5.163,0.73
							c-1.643,0.486-3.208,1.093-4.697,1.82l-4.977,28.464c-0.07,0.388-0.276,0.742-0.622,1.057
							c-0.347,0.315-0.716,0.474-1.104,0.474h-8.828c-0.391,0-0.717-0.158-0.977-0.474c-0.264-0.318-0.358-0.671-0.291-1.06
							l6.789-38.816c0.068-0.39,0.273-0.73,0.617-1.022c0.342-0.293,0.708-0.438,1.098-0.438h8.682c0.39,0,0.704,0.148,0.945,0.442
							c0.242,0.294,0.328,0.636,0.258,1.03l-0.258,1.47c1.559-1.126,3.256-1.996,5.09-2.608c1.833-0.613,3.625-0.919,5.378-0.919
							c0.388,0,0.703,0.147,0.943,0.442c0.242,0.294,0.326,0.638,0.258,1.03l-1.222,6.983
							C297.025,63.668,296.872,63.987,296.627,64.281z"/>
					</g>
				</g>
			</g>
		</g>
		<g>
			<g>
				<g>
					<g>
						<path fill="#FFFFFF" d="M151.08,96.948c-0.609,0.146-1.368,0.27-2.352,0.407c-1.199,0.164-2.563,0.311-3.929,0.413
							c-1.122,0.085-2.79,0.129-3.762,0.129c-2.337,0-4.551-0.194-6.646-0.584c-2.096-0.388-3.857-1.143-5.29-2.26
							c-1.43-1.122-2.448-2.711-3.053-4.781c-0.606-2.066-0.613-4.754-0.025-8.062l6.706-37.724c0.069-0.388,0.275-0.728,0.62-1.02
							c0.344-0.292,0.708-0.44,1.099-0.44h9.558c0.388,0,0.705,0.148,0.943,0.44c0.242,0.292,0.327,0.632,0.256,1.02l-6.706,37.724
							c-0.338,1.897-0.215,3.198,0.365,3.903c0.579,0.705,1.72,1.06,3.424,1.06h10.532c0.387,0,0.702,0.144,0.944,0.436
							c0.238,0.292,0.326,0.634,0.255,1.021l-1.206,6.785C152.666,96.244,152.09,96.755,151.08,96.948z"/>
					</g>
				</g>
			</g>
		</g>
		<g>
			<path fill="#FFFFFF" d="M83.681,49.12c-2.096-0.576-4.312-1.06-6.587-1.438c-2.263-0.373-5.14-0.563-8.549-0.563
				c-5.901,0-10.523,1.124-13.735,3.342c-3.165,2.185-5.15,5.438-5.905,9.667c-0.479,2.707-0.258,5.114,0.659,7.156
				c0.917,2.048,2.436,3.755,4.508,5.077l10.303,6.622c1.215,0.773,2.021,1.472,2.463,2.134c0.492,0.74,0.661,1.551,0.508,2.407
				c-0.246,1.389-0.854,2.442-1.805,3.127c-0.928,0.669-2.505,0.994-4.823,0.994c-0.722,0-1.697-0.03-2.894-0.089
				c-1.206-0.059-2.521-0.148-3.912-0.269c-1.378-0.115-2.801-0.25-4.227-0.397c-1.376-0.143-2.663-0.304-3.82-0.481h-0.291
				c-0.324,0-0.567,0.086-0.768,0.271c-0.219,0.202-0.346,0.435-0.4,0.73l-1.272,7.152c-0.112,0.638,0.069,0.915,0.724,1.095
				c1.03,0.288,2.202,0.548,3.484,0.779c1.279,0.229,2.635,0.437,4.03,0.611c1.38,0.173,2.763,0.307,4.108,0.394
				c1.343,0.086,2.633,0.13,3.843,0.13c3.13,0,5.934-0.374,8.33-1.111c2.385-0.734,4.46-1.747,6.17-3.011
				c1.693-1.252,3.073-2.759,4.104-4.483c1.032-1.73,1.731-3.6,2.078-5.553c0.197-1.11,0.287-2.245,0.262-3.369
				c-0.023-1.07-0.255-2.144-0.686-3.193c-0.437-1.058-1.108-2.109-1.999-3.126c-0.897-1.024-2.148-2.059-3.714-3.076l-9.844-6.275
				c-0.855-0.575-1.485-1.095-1.929-1.593c-0.556-0.626-0.767-1.429-0.609-2.321c0.283-1.591,1.183-2.31,1.886-2.634
				c0.885-0.407,2.213-0.604,4.056-0.604c1.131,0,2.433,0.045,3.869,0.134c1.409,0.087,2.824,0.191,4.201,0.311
				c1.37,0.119,2.65,0.254,3.803,0.4c1.122,0.144,2.002,0.247,2.617,0.302h0.228c0.413,0,0.827-0.077,0.992-1l1.271-7.151
				C84.521,49.578,84.337,49.303,83.681,49.12z"/>
		</g>
		<path fill="#FFFFFF" d="M326.55,65.276c0-5.908-4.79-10.699-10.698-10.699s-10.697,4.791-10.697,10.699
			c0,2.02,0.561,3.908,1.532,5.519l-4.688,4.196c0,0-0.361,0.309-0.191,0.694c0.141,0.315,0.537,0.288,0.537,0.288h13.558v-0.001
			C321.787,75.945,326.55,71.168,326.55,65.276z"/>
	</g>
</g>
<rect x="-0.009" y="0.007" fill="none" width="369.668" height="155.155"/>
</svg>
