<?xml version="1.0" encoding="utf-8"?>
<!-- Generator: Adobe Illustrator 15.0.2, SVG Export Plug-In . SVG Version: 6.00 Build 0)  -->
<!DOCTYPE svg PUBLIC "-//W3C//DTD SVG 1.1//EN" "http://www.w3.org/Graphics/SVG/1.1/DTD/svg11.dtd">
<svg version="1.1" id="Calque_1" xmlns="http://www.w3.org/2000/svg" xmlns:xlink="http://www.w3.org/1999/xlink" x="0px" y="0px"
	 width="369.644px" height="206.318px" viewBox="0 0 369.644 206.318" enable-background="new 0 0 369.644 206.318"
	 xml:space="preserve">
<g>
	<g>
		<g>
			<g>
				<g>
					<g>
						<path d="M119.422,78.293c-0.202,1.167-0.817,1.753-1.839,1.753H94.309l-0.025,0.144c-0.177,1.01-0.229,2.002-0.154,2.965
							c0.075,0.964,0.339,1.806,0.798,2.527c0.458,0.724,1.122,1.306,1.996,1.737c0.872,0.436,2.038,0.65,3.499,0.65
							c1.166,0,2.411-0.023,3.733-0.073c1.322-0.048,2.631-0.099,3.929-0.146c1.296-0.048,2.509-0.108,3.644-0.182
							c1.132-0.073,2.068-0.158,2.817-0.256h0.219c0.921,0,1.318,0.392,1.183,1.171l-0.979,5.588
							c-0.104,0.588-0.279,1.028-0.523,1.322c-0.246,0.294-0.699,0.515-1.356,0.661c-2.439,0.588-4.802,1.03-7.091,1.324
							c-2.289,0.294-5.014,0.44-8.176,0.44c-2.189,0-4.323-0.317-6.401-0.949c-2.079-0.629-3.866-1.676-5.359-3.136
							c-1.497-1.459-2.571-3.395-3.219-5.801c-0.651-2.408-0.668-5.365-0.055-8.866l0.893-5.109c0.51-2.917,1.387-5.567,2.632-7.951
							c1.243-2.383,2.8-4.404,4.671-6.055c1.867-1.655,4.025-2.931,6.469-3.833c2.443-0.9,5.125-1.351,8.044-1.351
							c2.965,0,5.497,0.488,7.587,1.461c2.092,0.972,3.743,2.311,4.954,4.012c1.21,1.704,1.987,3.722,2.333,6.057
							c0.344,2.336,0.275,4.888-0.208,7.659L119.422,78.293z M108.915,72.457c0.476-2.723,0.248-4.754-0.685-6.095
							c-0.933-1.334-2.422-2.004-4.464-2.004c-2.045,0-3.793,0.682-5.248,2.043c-1.454,1.361-2.415,3.38-2.881,6.055l-0.053,0.292
							h13.281L108.915,72.457z"/>
					</g>
				</g>
				<g>
					<g>
						<path d="M192.368,78.95c-0.511,2.919-1.372,5.546-2.583,7.879c-1.214,2.335-2.729,4.318-4.55,5.947
							c-1.821,1.631-3.941,2.896-6.366,3.795c-2.423,0.899-5.123,1.349-8.096,1.349c-2.972,0-5.514-0.45-7.623-1.349
							c-2.11-0.898-3.801-2.164-5.077-3.795c-1.274-1.629-2.11-3.612-2.504-5.947c-0.398-2.333-0.34-4.96,0.171-7.879l0.892-5.107
							c0.512-2.919,1.372-5.546,2.584-7.879c1.213-2.335,2.742-4.318,4.587-5.949c1.846-1.629,3.979-2.892,6.404-3.793
							c2.423-0.9,5.121-1.351,8.094-1.351c2.974,0,5.515,0.45,7.624,1.351c2.11,0.901,3.789,2.165,5.04,3.793
							c1.251,1.63,2.072,3.613,2.469,5.949c0.396,2.333,0.34,4.96-0.171,7.879L192.368,78.95z M181.442,73.843
							c1.039-5.936-0.596-8.901-4.9-8.901c-2.129,0-3.88,0.742-5.252,2.225c-1.371,1.484-2.317,3.709-2.836,6.676l-0.895,5.107
							c-0.517,2.967-0.353,5.206,0.497,6.714c0.849,1.507,2.337,2.262,4.466,2.262c4.306,0,6.981-2.994,8.028-8.976L181.442,73.843z
							"/>
					</g>
				</g>
				<g>
					<g>
						<path d="M235.589,61.512c-0.09,0.536-0.267,0.9-0.52,1.095c-0.251,0.194-0.61,0.365-1.074,0.508l-2.387,0.732
							c0.317,0.682,0.544,1.531,0.683,2.554c0.139,1.021,0.128,1.969-0.022,2.844l-0.104,0.584
							c-0.833,4.767-3.009,8.234-6.525,10.396c-3.515,2.165-8.144,3.25-13.882,3.25c-1.703,0-3.192-0.113-4.468-0.332
							c-1.273-0.219-2.251-0.475-2.929-0.765c-0.434,0.244-0.745,0.498-0.937,0.765c-0.194,0.269-0.32,0.574-0.379,0.914
							c-0.104,0.583-0.033,1.021,0.207,1.313s0.781,0.534,1.625,0.728l7.925,1.826c3.042,0.68,5.602,1.35,7.675,2.006
							c2.074,0.657,3.703,1.41,4.894,2.262c1.189,0.851,1.971,1.87,2.347,3.065c0.377,1.19,0.411,2.661,0.104,4.412l-0.103,0.583
							c-1.384,7.928-8.451,11.894-21.195,11.894c-6.08,0-10.511-1.022-13.292-3.065c-2.779-2.041-3.833-4.985-3.161-8.829
							l0.102-0.583c0.266-1.508,0.855-2.942,1.773-4.304c0.919-1.361,2.265-2.65,4.034-3.868c-1.186-0.729-1.958-1.739-2.314-3.027
							c-0.361-1.289-0.434-2.542-0.222-3.757c0.239-1.362,0.752-2.555,1.539-3.578c0.788-1.02,1.708-1.896,2.758-2.624
							c-0.99-1.023-1.605-2.358-1.851-4.014c-0.248-1.653-0.242-3.21,0.013-4.67l0.102-0.584c0.723-4.132,2.754-7.465,6.089-9.996
							c3.338-2.53,8.19-3.793,14.563-3.793h18.168c0.534,0,0.942,0.182,1.219,0.547c0.273,0.365,0.369,0.815,0.273,1.349
							L235.589,61.512z M215.781,99.672c0.062-0.342,0.036-0.669-0.082-0.984c-0.115-0.316-0.413-0.621-0.899-0.914
							c-0.483-0.291-1.186-0.583-2.107-0.874c-0.921-0.294-2.178-0.632-3.761-1.024l-5.195-1.167
							c-0.548,0.634-1.02,1.304-1.409,2.008c-0.392,0.707-0.697,1.689-0.917,2.955l-0.104,0.583
							c-0.221,1.266,0.125,2.202,1.041,2.811c0.915,0.605,2.783,0.911,5.605,0.911c1.507,0,2.736-0.085,3.691-0.256
							c0.953-0.171,1.718-0.426,2.286-0.766c0.573-0.342,0.981-0.742,1.232-1.203c0.251-0.465,0.425-0.961,0.518-1.498
							L215.781,99.672z M220.738,69.246c0.264-1.507,0.046-2.761-0.655-3.755c-0.701-0.999-2.34-1.499-4.92-1.499
							c-2.577,0-4.417,0.5-5.514,1.499c-1.1,0.995-1.779,2.248-2.044,3.755l-0.102,0.584c-0.111,0.634-0.135,1.253-0.07,1.86
							c0.063,0.611,0.295,1.158,0.695,1.642c0.401,0.487,1.005,0.877,1.806,1.169c0.798,0.29,1.903,0.436,3.313,0.436
							c2.58,0,4.389-0.461,5.425-1.385c1.038-0.923,1.69-2.164,1.965-3.722L220.738,69.246z"/>
					</g>
				</g>
				<g>
					<g>
						<path d="M269.133,78.293c-0.203,1.167-0.818,1.753-1.838,1.753h-23.276l-0.025,0.144c-0.177,1.01-0.229,2.002-0.154,2.965
							c0.075,0.964,0.342,1.806,0.799,2.527c0.457,0.724,1.122,1.306,1.996,1.737c0.871,0.436,2.039,0.65,3.498,0.65
							c1.166,0,2.411-0.023,3.732-0.073c1.322-0.048,2.632-0.099,3.931-0.146c1.295-0.048,2.511-0.108,3.643-0.182
							c1.133-0.073,2.068-0.158,2.817-0.256h0.219c0.922,0,1.317,0.392,1.183,1.171l-0.979,5.588
							c-0.104,0.588-0.279,1.028-0.522,1.322c-0.247,0.294-0.699,0.515-1.358,0.661c-2.436,0.588-4.8,1.03-7.089,1.324
							c-2.288,0.294-5.016,0.44-8.176,0.44c-2.189,0-4.322-0.317-6.401-0.949c-2.079-0.629-3.866-1.676-5.361-3.136
							c-1.495-1.459-2.568-3.395-3.217-5.801c-0.648-2.408-0.667-5.365-0.055-8.866l0.893-5.109
							c0.511-2.917,1.387-5.567,2.631-7.951c1.243-2.383,2.802-4.404,4.672-6.055c1.867-1.655,4.026-2.931,6.47-3.833
							c2.443-0.9,5.125-1.351,8.042-1.351c2.968,0,5.498,0.488,7.59,1.461c2.092,0.972,3.743,2.311,4.953,4.012
							c1.209,1.704,1.988,3.722,2.333,6.057c0.346,2.336,0.277,4.888-0.207,7.659L269.133,78.293z M258.625,72.457
							c0.478-2.723,0.248-4.754-0.686-6.095c-0.933-1.334-2.422-2.004-4.465-2.004s-3.791,0.682-5.246,2.043
							c-1.453,1.361-2.415,3.38-2.882,6.055l-0.052,0.292h13.28L258.625,72.457z"/>
					</g>
				</g>
				<g>
					<g>
						<path d="M296.627,64.281c-0.246,0.296-0.539,0.439-0.88,0.439h-0.582c-1.801,0-3.523,0.244-5.163,0.73
							c-1.643,0.486-3.208,1.093-4.697,1.82l-4.977,28.464c-0.07,0.389-0.276,0.742-0.622,1.057
							c-0.347,0.315-0.716,0.474-1.104,0.474h-8.828c-0.391,0-0.717-0.159-0.977-0.474c-0.264-0.319-0.358-0.671-0.291-1.059
							l6.789-38.816c0.068-0.39,0.273-0.73,0.617-1.022c0.342-0.293,0.708-0.438,1.098-0.438h8.682c0.39,0,0.704,0.148,0.945,0.442
							c0.242,0.294,0.328,0.636,0.258,1.03l-0.258,1.47c1.559-1.126,3.256-1.996,5.09-2.608c1.833-0.613,3.625-0.919,5.378-0.919
							c0.388,0,0.703,0.147,0.943,0.442c0.242,0.294,0.326,0.638,0.258,1.03l-1.222,6.983
							C297.025,63.668,296.872,63.987,296.627,64.281z"/>
					</g>
				</g>
			</g>
		</g>
		<g>
			<g>
				<g>
					<g>
						<path d="M151.08,96.948c-0.609,0.146-1.368,0.27-2.352,0.407c-1.199,0.165-2.563,0.311-3.929,0.413
							c-1.122,0.085-2.79,0.129-3.762,0.129c-2.337,0-4.551-0.194-6.646-0.584c-2.096-0.388-3.857-1.142-5.29-2.26
							c-1.43-1.122-2.448-2.71-3.053-4.781c-0.606-2.066-0.613-4.754-0.025-8.061l6.706-37.724c0.069-0.388,0.275-0.728,0.62-1.02
							c0.344-0.292,0.708-0.44,1.099-0.44h9.558c0.388,0,0.705,0.148,0.943,0.44c0.242,0.292,0.327,0.632,0.256,1.02l-6.706,37.724
							c-0.338,1.897-0.215,3.198,0.365,3.903c0.579,0.705,1.72,1.06,3.424,1.06h10.532c0.387,0,0.702,0.144,0.944,0.436
							c0.238,0.292,0.326,0.634,0.255,1.021l-1.206,6.785C152.666,96.244,152.09,96.755,151.08,96.948z"/>
					</g>
				</g>
			</g>
		</g>
		<g>
			<path d="M83.681,49.12c-2.096-0.576-4.312-1.06-6.587-1.438c-2.263-0.373-5.14-0.563-8.549-0.563
				c-5.901,0-10.523,1.124-13.735,3.342c-3.165,2.185-5.15,5.438-5.905,9.667c-0.479,2.707-0.258,5.114,0.659,7.156
				c0.917,2.048,2.436,3.755,4.508,5.077l10.303,6.622c1.215,0.773,2.021,1.471,2.463,2.134c0.492,0.74,0.661,1.551,0.508,2.407
				c-0.246,1.389-0.854,2.442-1.805,3.126c-0.928,0.669-2.505,0.995-4.823,0.995c-0.722,0-1.697-0.031-2.894-0.089
				c-1.206-0.059-2.521-0.148-3.912-0.269c-1.378-0.115-2.801-0.25-4.227-0.397c-1.376-0.143-2.663-0.304-3.82-0.481h-0.291
				c-0.324,0-0.567,0.085-0.768,0.27c-0.219,0.202-0.346,0.435-0.4,0.731l-1.272,7.152c-0.112,0.637,0.069,0.915,0.724,1.095
				c1.03,0.288,2.202,0.548,3.484,0.779c1.279,0.229,2.635,0.436,4.03,0.611c1.38,0.173,2.763,0.306,4.108,0.393
				c1.343,0.086,2.633,0.13,3.843,0.13c3.13,0,5.934-0.374,8.33-1.112c2.385-0.734,4.46-1.747,6.17-3.011
				c1.693-1.251,3.073-2.758,4.104-4.483c1.032-1.73,1.731-3.599,2.078-5.552c0.197-1.111,0.287-2.246,0.262-3.37
				c-0.023-1.07-0.255-2.144-0.686-3.192c-0.437-1.058-1.108-2.109-1.999-3.126c-0.897-1.024-2.148-2.059-3.714-3.076l-9.844-6.275
				c-0.855-0.575-1.485-1.095-1.929-1.593c-0.556-0.626-0.767-1.429-0.609-2.321c0.283-1.591,1.183-2.31,1.886-2.634
				c0.885-0.407,2.213-0.604,4.056-0.604c1.131,0,2.433,0.045,3.869,0.134c1.409,0.087,2.824,0.191,4.201,0.311
				c1.37,0.119,2.65,0.254,3.803,0.4c1.122,0.144,2.002,0.247,2.617,0.302h0.228c0.413,0,0.827-0.077,0.992-1l1.271-7.151
				C84.521,49.578,84.337,49.303,83.681,49.12z"/>
		</g>
		<path d="M326.55,65.276c0-5.908-4.79-10.699-10.698-10.699s-10.697,4.791-10.697,10.699c0,2.02,0.561,3.908,1.532,5.519
			l-4.688,4.196c0,0-0.361,0.309-0.191,0.694c0.141,0.315,0.537,0.288,0.537,0.288h13.558v-0.001
			C321.787,75.945,326.55,71.168,326.55,65.276z"/>
	</g>
</g>
<rect x="-0.009" y="0.007" fill="none" width="369.668" height="206.339"/>
<g>
	<path d="M73.769,162.173c-0.239,0.244-0.658,0.414-1.262,0.513c-1.258,0.241-2.696,0.436-4.306,0.586
		c-1.61,0.143-3.267,0.217-4.974,0.217c-2.481,0-4.613-0.428-6.387-1.279c-1.772-0.853-3.191-2.046-4.257-3.58
		c-1.068-1.534-1.747-3.399-2.037-5.591c-0.296-2.196-0.204-4.632,0.275-7.311l1.015-5.701c0.476-2.679,1.25-5.116,2.32-7.311
		c1.076-2.191,2.405-4.057,3.994-5.593c1.586-1.534,3.434-2.729,5.535-3.578c2.098-0.852,4.394-1.279,6.878-1.279
		c1.708,0,3.333,0.072,4.893,0.217c1.558,0.15,2.924,0.343,4.096,0.589c0.567,0.096,0.932,0.255,1.089,0.474
		c0.154,0.22,0.186,0.595,0.089,1.132l-0.467,2.63c-0.072,0.394-0.243,0.673-0.514,0.845c-0.276,0.166-0.584,0.253-0.924,0.253
		h-0.292c-1.573-0.194-3.011-0.328-4.313-0.4c-1.305-0.073-2.86-0.109-4.663-0.109c-2.92,0-5.353,0.984-7.285,2.961
		c-1.933,1.973-3.271,5.029-4.006,9.171l-1.014,5.701c-0.739,4.14-0.5,7.2,0.707,9.171c1.209,1.975,3.298,2.963,6.272,2.963
		c1.8,0,3.367-0.036,4.696-0.109c1.331-0.074,2.815-0.208,4.457-0.402h0.293c0.341,0,0.615,0.087,0.831,0.257
		c0.214,0.168,0.285,0.449,0.216,0.839l-0.467,2.632C74.168,161.565,74.007,161.93,73.769,162.173z"/>
	<path d="M108.72,145.655c-0.476,2.68-1.25,5.115-2.323,7.309c-1.072,2.191-2.426,4.07-4.072,5.625
		c-1.639,1.561-3.559,2.768-5.761,3.62c-2.196,0.852-4.636,1.279-7.315,1.279c-2.679,0-4.955-0.428-6.825-1.279
		c-1.871-0.853-3.35-2.06-4.436-3.62c-1.087-1.555-1.779-3.434-2.07-5.625c-0.293-2.193-0.199-4.629,0.275-7.309l0.991-5.557
		c0.476-2.68,1.25-5.115,2.321-7.309c1.076-2.191,2.431-4.067,4.075-5.627c1.639-1.561,3.548-2.769,5.723-3.618
		c2.174-0.852,4.603-1.279,7.278-1.279c2.683,0,4.969,0.428,6.867,1.279c1.893,0.85,3.383,2.058,4.469,3.618
		c1.087,1.56,1.778,3.436,2.068,5.627c0.292,2.193,0.2,4.629-0.279,7.309L108.72,145.655z M103.278,140.099
		c0.667-3.753,0.414-6.723-0.755-8.914c-1.169-2.194-3.486-3.29-6.943-3.29c-3.413,0-6.087,1.085-8.033,3.252
		c-1.947,2.169-3.257,5.152-3.932,8.952l-0.988,5.557c-0.67,3.751-0.426,6.721,0.716,8.917c1.146,2.193,3.447,3.289,6.907,3.289
		c3.412,0,6.102-1.085,8.069-3.254c1.971-2.164,3.295-5.152,3.97-8.952L103.278,140.099z"/>
	<path d="M139.632,162.538c-0.345,0.293-0.712,0.438-1.103,0.438h-3.507c-0.392,0-0.707-0.145-0.946-0.438
		c-0.241-0.291-0.329-0.631-0.26-1.021l4.272-23.995c0.329-1.85,0.445-3.391,0.344-4.632c-0.096-1.239-0.402-2.226-0.934-2.954
		c-0.526-0.729-1.273-1.252-2.241-1.57c-0.972-0.314-2.137-0.472-3.499-0.472c-1.562,0-3.216,0.269-4.966,0.801
		c-1.752,0.537-3.555,1.214-5.405,2.044l-5.479,30.778c-0.068,0.39-0.272,0.729-0.618,1.021c-0.345,0.293-0.712,0.438-1.1,0.438
		h-3.583c-0.391,0-0.691-0.145-0.907-0.438c-0.219-0.291-0.287-0.636-0.219-1.024l6.63-37.273c0.068-0.392,0.261-0.733,0.583-1.023
		c0.321-0.294,0.672-0.438,1.068-0.438h3.653c0.389,0,0.693,0.149,0.903,0.444c0.216,0.298,0.291,0.643,0.221,1.038l-0.252,1.411
		c2.25-1.134,4.298-1.986,6.156-2.552c1.853-0.57,3.88-0.854,6.072-0.854c4.433,0,7.428,1.315,8.982,3.949
		c1.554,2.628,1.897,6.381,1.031,11.256l-4.278,24.043C140.184,161.902,139.976,162.247,139.632,162.538z"/>
	<path d="M172.118,152.893c-0.329,1.85-0.942,3.446-1.837,4.785c-0.899,1.345-2.018,2.436-3.364,3.29
		c-1.346,0.852-2.897,1.487-4.654,1.898c-1.749,0.414-3.653,0.622-5.697,0.622c-0.687,0-1.501-0.012-2.443-0.038
		c-0.947-0.024-1.933-0.083-2.964-0.179c-1.034-0.101-2.073-0.211-3.121-0.331c-1.054-0.121-1.993-0.305-2.827-0.548
		c-0.98-0.246-1.406-0.733-1.274-1.461l0.455-2.561c0.061-0.34,0.229-0.61,0.508-0.801c0.278-0.196,0.611-0.293,1.002-0.293h0.292
		c0.861,0.097,1.805,0.19,2.835,0.293c1.031,0.095,2.075,0.182,3.132,0.255c1.063,0.072,2.049,0.135,2.966,0.182
		c0.916,0.049,1.716,0.071,2.397,0.071c2.39,0,4.255-0.364,5.604-1.096c1.346-0.729,2.202-2.093,2.557-4.09
		c0.199-1.125-0.021-2.098-0.652-2.926c-0.631-0.829-1.885-1.876-3.755-3.144l-6.598-4.386c-2-1.364-3.537-2.862-4.609-4.493
		c-1.074-1.632-1.402-3.618-0.987-5.959c0.337-1.899,0.955-3.472,1.863-4.712c0.901-1.244,2.004-2.243,3.311-2.997
		c1.302-0.754,2.788-1.281,4.445-1.572c1.661-0.293,3.439-0.438,5.341-0.438c2.049,0,4.013,0.085,5.91,0.255
		c1.896,0.173,3.667,0.402,5.323,0.696c0.897,0.145,1.277,0.632,1.125,1.46l-0.426,2.413c-0.148,0.829-0.635,1.241-1.461,1.241
		h-0.223c-1.248-0.097-2.917-0.217-5.013-0.362c-2.091-0.15-4.164-0.222-6.211-0.222c-2.046,0-3.732,0.244-5.062,0.731
		c-1.331,0.487-2.16,1.657-2.489,3.507c-0.199,1.122,0.041,2.084,0.727,2.889c0.687,0.801,1.793,1.693,3.327,2.666l6.472,4.313
		c2.696,1.803,4.482,3.559,5.348,5.263C172.253,148.822,172.5,150.748,172.118,152.893z"/>
	<path d="M192.956,163.121c-0.751,0.099-1.569,0.186-2.459,0.258c-0.892,0.071-1.675,0.109-2.357,0.109
		c-1.706,0-3.156-0.135-4.35-0.4c-1.194-0.269-2.129-0.77-2.804-1.498c-0.675-0.731-1.107-1.731-1.295-3.001
		c-0.187-1.262-0.107-2.896,0.25-4.894l4.538-25.508l-6.946-0.808c-0.907-0.096-1.292-0.536-1.156-1.314l0.356-1.973
		c0.152-0.876,0.694-1.314,1.621-1.314h7.088l1.277-7.165c0.146-0.828,0.67-1.315,1.573-1.461l3.902-0.584h0.222
		c0.291,0,0.53,0.107,0.709,0.327c0.184,0.219,0.237,0.525,0.168,0.914l-1.418,7.969h7.894c0.39,0,0.705,0.145,0.942,0.438
		c0.243,0.29,0.331,0.632,0.259,1.023l-0.44,2.484c-0.069,0.392-0.279,0.731-0.624,1.022c-0.344,0.291-0.713,0.44-1.1,0.44h-7.893
		l-4.526,25.445c-0.355,1.99-0.288,3.258,0.201,3.79c0.49,0.537,1.466,0.804,2.927,0.804h4.094c1.025,0,1.475,0.346,1.351,1.039
		l-0.461,2.597C194.375,162.554,193.859,162.976,192.956,163.121z"/>
	<path d="M218.809,127.895c-1.707,0-3.389,0.23-5.055,0.691s-3.526,1.252-5.575,2.37l-5.438,30.562
		c-0.069,0.39-0.273,0.729-0.622,1.021c-0.342,0.293-0.709,0.438-1.098,0.438h-3.583c-0.391,0-0.69-0.145-0.905-0.438
		c-0.22-0.291-0.288-0.636-0.22-1.024l6.629-37.273c0.069-0.392,0.26-0.733,0.584-1.023c0.319-0.294,0.673-0.438,1.064-0.438h3.435
		c0.39,0,0.693,0.149,0.906,0.444c0.215,0.298,0.288,0.643,0.219,1.038l-0.279,1.557c2.082-1.279,4.01-2.196,5.79-2.737
		c1.775-0.544,3.497-0.814,5.15-0.814c1.021,0,1.455,0.445,1.299,1.333l-0.541,3.037
		C220.416,127.475,219.83,127.895,218.809,127.895z"/>
	<path d="M246.451,162.538c-0.322,0.293-0.678,0.438-1.064,0.438h-3.656c-0.389,0-0.693-0.147-0.906-0.444
		c-0.214-0.296-0.288-0.642-0.219-1.04l0.251-1.409c-2.248,1.134-4.299,1.986-6.152,2.554c-1.858,0.568-3.88,0.853-6.074,0.853
		c-4.435,0-7.429-1.315-8.983-3.947c-1.552-2.63-1.896-6.383-1.03-11.253l4.28-24.048c0.069-0.392,0.279-0.733,0.621-1.023
		c0.343-0.294,0.709-0.438,1.099-0.438h3.511c0.387,0,0.702,0.145,0.943,0.436c0.239,0.293,0.327,0.633,0.256,1.022l-4.268,23.998
		c-0.329,1.847-0.442,3.393-0.351,4.629c0.098,1.243,0.406,2.226,0.938,2.954c0.526,0.729,1.264,1.253,2.205,1.57
		c0.941,0.314,2.123,0.474,3.534,0.474c1.559,0,3.213-0.269,4.967-0.803c1.748-0.534,3.554-1.217,5.407-2.044l5.475-30.778
		c0.069-0.39,0.275-0.729,0.622-1.022c0.342-0.291,0.711-0.436,1.1-0.436h3.58c0.387,0,0.693,0.145,0.906,0.438
		c0.217,0.29,0.295,0.632,0.226,1.023l-6.633,37.273C246.966,161.902,246.769,162.247,246.451,162.538z"/>
	<path d="M259.167,161.514c-0.067,0.389-0.274,0.733-0.619,1.024c-0.342,0.293-0.711,0.438-1.103,0.438h-3.507
		c-0.392,0-0.706-0.145-0.943-0.438c-0.242-0.291-0.327-0.636-0.26-1.024l6.633-37.273c0.067-0.392,0.273-0.733,0.617-1.023
		c0.345-0.294,0.712-0.438,1.103-0.438h3.512c0.387,0,0.702,0.145,0.943,0.438c0.239,0.29,0.326,0.632,0.255,1.023L259.167,161.514z
		 M267.609,114.884c-0.069,0.389-0.277,0.729-0.622,1.022c-0.342,0.292-0.709,0.44-1.103,0.44h-3.726
		c-0.389,0-0.706-0.148-0.948-0.44c-0.236-0.293-0.321-0.634-0.255-1.022l1.042-5.848c0.069-0.39,0.277-0.731,0.62-1.022
		c0.344-0.293,0.711-0.44,1.098-0.44h3.73c0.394,0,0.706,0.147,0.945,0.44c0.242,0.291,0.329,0.633,0.258,1.022L267.609,114.884z"/>
	<path d="M287.438,127.895c-1.704,0-3.388,0.23-5.056,0.691c-1.664,0.461-3.522,1.252-5.571,2.37l-5.438,30.562
		c-0.071,0.39-0.277,0.729-0.622,1.021c-0.344,0.293-0.711,0.438-1.1,0.438h-3.583c-0.389,0-0.688-0.145-0.905-0.438
		c-0.22-0.291-0.289-0.636-0.22-1.024l6.631-37.273c0.069-0.392,0.26-0.733,0.584-1.023c0.319-0.294,0.673-0.438,1.06-0.438h3.436
		c0.394,0,0.695,0.149,0.91,0.444c0.217,0.298,0.286,0.643,0.217,1.038l-0.279,1.557c2.081-1.279,4.012-2.196,5.792-2.737
		c1.775-0.544,3.49-0.814,5.147-0.814c1.029,0,1.456,0.445,1.3,1.333l-0.539,3.037C289.054,127.475,288.461,127.895,287.438,127.895
		z"/>
	<path d="M317.296,143.316c-0.192,1.071-0.749,1.605-1.673,1.605h-24.416l-0.182,1.024c-0.773,4.336-0.467,7.406,0.92,9.209
		c1.387,1.805,3.759,2.706,7.118,2.706c2.145,0,4.437-0.074,6.874-0.222c2.44-0.145,4.531-0.337,6.284-0.583h0.362
		c0.293,0,0.548,0.073,0.763,0.221c0.222,0.144,0.293,0.416,0.224,0.801l-0.442,2.487c-0.085,0.487-0.251,0.865-0.492,1.134
		c-0.244,0.266-0.667,0.447-1.266,0.548c-2.165,0.389-4.303,0.693-6.416,0.912c-2.104,0.22-4.406,0.329-6.891,0.329
		c-2.096,0-4.095-0.279-5.991-0.839c-1.896-0.563-3.495-1.512-4.788-2.854c-1.299-1.337-2.221-3.129-2.777-5.369
		c-0.548-2.241-0.519-5.07,0.087-8.48l1.168-6.579c0.939-5.26,3.063-9.426,6.383-12.497c3.316-3.07,7.604-4.604,12.85-4.604
		c2.677,0,4.938,0.4,6.787,1.208c1.852,0.803,3.313,1.948,4.381,3.433c1.073,1.487,1.767,3.289,2.071,5.409
		c0.299,2.118,0.224,4.471-0.237,7.052L317.296,143.316z M311.56,139.367c0.74-4.14,0.473-7.092-0.796-8.843
		c-1.271-1.753-3.516-2.63-6.736-2.63c-3.166,0-5.751,0.926-7.762,2.777c-2.011,1.85-3.37,4.748-4.068,8.695l-0.12,0.659h19.371
		L311.56,139.367z"/>
</g>
</svg>
