<?xml version="1.0" encoding="utf-8"?>
<!-- Generator: Adobe Illustrator 20.0.0, SVG Export Plug-In . SVG Version: 6.00 Build 0)  -->
<svg version="1.1" id="Calque_1" xmlns="http://www.w3.org/2000/svg" xmlns:xlink="http://www.w3.org/1999/xlink" x="0px" y="0px"
	 viewBox="0 0 799.5 212.6" enable-background="new 0 0 799.5 212.6" xml:space="preserve">
<path display="none" fill="#397DBD" d="M793.1,7.7c-3.5-3.5-8.2-5.4-13.1-5.4L20.2,1.5c0,0,0,0,0,0C10,1.5,1.7,9.8,1.7,20L1.5,193
	c0,4.9,1.9,9.6,5.4,13.1c3.5,3.5,8.2,5.4,13.1,5.4l759.8,0.8c0,0,0,0,0,0c10.2,0,18.5-8.3,18.5-18.5l0.2-173
	C798.5,15.9,796.5,11.2,793.1,7.7z"/>
<g display="none">
	<path display="inline" fill="#397DBD" d="M793.1,7.7c-3.5-3.5-8.2-5.4-13.1-5.4L20.2,1.5c0,0,0,0,0,0C10,1.5,1.7,9.8,1.7,20
		L1.5,193c0,4.9,1.9,9.6,5.4,13.1c3.5,3.5,8.2,5.4,13.1,5.4l130.3,0.1l629.4,0.6c0,0,0,0,0,0c10.2,0,18.5-8.3,18.5-18.5l0.1-47.1
		l0.2-125.9C798.5,15.9,796.5,11.2,793.1,7.7z"/>
	<linearGradient id="SVGID_1_" gradientUnits="userSpaceOnUse" x1="412.6394" y1="211.9932" x2="412.6394" y2="44.3838">
		<stop  offset="5.454550e-02" style="stop-color:#397DBD"/>
		<stop  offset="0.3763" style="stop-color:#2A5897"/>
		<stop  offset="0.5455" style="stop-color:#234889"/>
	</linearGradient>
	<path display="inline" fill="url(#SVGID_1_)" d="M782.8,212L692.4,73.3c0,0-40.4,7.3-42.5,28.1c-1.2-1-16.8-20.8-21-23.9
		c-22.9-5.6-41.2,14.8-41.2,14.8L573.3,73c-45.4-3.1-51.3,24.3-51.3,24.3l-14-18.6c-48.6-11.1-49.3,20.2-49.3,20.2
		s-17.5-21.8-16.9-22c-16.7-11.5-42.5,14-42.5,14L387.6,73c-34.4-0.4-52.4,23.3-52.4,23.3L321,76.1C295.9,72.8,282.1,89,282.1,89
		l-13.3-20.3c-3.9-1.7-19,18.6-19,18.6l-29.4-43l5.3,93.2l-37-45.5l-7.7,1.3l-39-47.5L56.7,62.8l38,46.9c0,0-0.2,4.7-3.7,1.7
		c-6.3-5.4-18.5-20.3-25.1-22.7C61,87,58,88.4,59.8,96.1c-1.6-0.9-6.5-4.9-8.2-2.1c-8.2,13.2-9.1,15.4-9.1,15.4l69.1,102.3
		L782.8,212z"/>
</g>
<path fill="#333333" d="M238,108.2l18.1-63.8c2-0.3,4.1-0.6,6.1-0.8c2.1-0.2,4.2-0.3,6.5-0.3c1.5,0,3.3,0.1,5.5,0.3
	c2.2,0.2,4.1,0.5,5.8,0.7l-30.3,94.2c-2.3,0.4-4.4,0.6-6.4,0.8c-2,0.2-3.9,0.3-5.7,0.3c-1.8,0-3.6-0.1-5.4-0.3
	c-1.8-0.2-4-0.4-6.6-0.8l-30.2-94.2c1.5-0.3,3.5-0.5,5.9-0.7c2.5-0.2,4.8-0.3,7.1-0.3c1.8,0,3.9,0.1,6.1,0.3
	c2.2,0.2,4.1,0.5,5.8,0.7L238,108.2z"/>
<g>
	<path fill-rule="evenodd" clip-rule="evenodd" fill="#333333" d="M99.5,73.6c-4.9,0.9-6.4-1.6-8.2-3.8c0,1.3,0,2.5,0,3.8
		c-1.2-0.6-3.2,0.8-4.4,0c-0.1-0.1-0.1-0.9-0.3-0.9c-1.4,0-2,1.2-3.5,0.9c-1.3-0.3-1.6-1.2-2.6-2.3c-1.6,0.3-1.7,2-3.2,2.3
		c-2.1,0.4-3.6-1-5-0.3c-1.6-0.6-3.1-1.2-4.1-2.3c-1.4,0.5-1.4,2.4-2.9,2.6c-4.8-1.9-8.6-4.9-9.1-10.5c-1.5-18.7,25.7-11.5,43-12.9
		c5-8.1,12.8-14.7,24.9-14c20.9,1.2,32.1,28.4,16.7,43.9C129.7,91.2,106.3,89.5,99.5,73.6z M126.2,68.9c9.9,1,10.2-15.9-0.6-13.8
		C118.1,56.6,118.3,68.1,126.2,68.9z"/>
	<path fill-rule="evenodd" clip-rule="evenodd" fill="#333333" d="M83.4,104c-1.4,0.3-2.2,1.2-3.2,1.8c-6.9-5.4-11.6-13-20.2-16.7
		c4.5-3.9,10.9,2,14.6,5.6C78.1,97.9,81.3,101.4,83.4,104z"/>
	<path fill-rule="evenodd" clip-rule="evenodd" fill="#333333" d="M76.7,109.3c-0.9,1.4-1.9,2.8-2.3,4.7c-8-6.3-13.7-14.8-22.8-19.9
		c1.1-1.1,1.5-1.9,3.5-1.8C64,93.1,70.6,105.2,76.7,109.3z"/>
	<path fill-rule="evenodd" clip-rule="evenodd" fill="#333333" d="M40.4,105.5c0-1,0-2,0-2.9c3.4-12.4,15.7,0.2,20.5,5
		c5.2,5.2,9.7,9.6,13.2,13.2c1.8,7.7,7.3,12.9,16.1,13.8c12.2,1.2,29.5,0,39.8-1.8c-9.3-6.9-32.5,0.7-44.2-4.1
		c-4.7-1.9-9.5-7.6-7.3-13.8c3.2-9.2,13.8-8.5,26.3-8.5c4.6,0,10.3,1,14.3,0c1.8-0.4,3.7-2.7,5.6-3.8c9.8-6.1,29.3-7.3,37.5,0.6
		c0,11.8,0,23.6,0,35.4c-13.4-0.3-21,4.3-30.1,8.2c-6.1,2.6-12.6,5.8-19.3,6.4c-7.6,0.7-16.3-0.5-23.4-1.8
		c-7.4-1.4-14.2-3.2-19.3-6.1c-6.2-3.6-10.8-10.8-15.8-17C48.4,121.1,42.3,115,40.4,105.5z"/>
</g>
<path fill="#333333" d="M270.2,116.6c0-4.3,0.9-7.9,2.8-10.7c1.8-2.8,4.2-5.1,7.1-6.7c2.9-1.7,6.1-2.8,9.6-3.5c3.5-0.7,6.9-1,10.3-1
	h8c-0.1-1.6-0.5-2.9-1.3-4c-0.8-1-1.8-1.9-3-2.4c-1.2-0.6-2.6-1-4.1-1.2c-1.5-0.2-3-0.3-4.6-0.3c-2.1,0-4.6,0.2-7.4,0.7
	c-2.8,0.5-5.7,1.3-8.7,2.3c-0.8-1.5-1.5-2.9-2-4.1c-0.6-1.2-1-2.5-1.3-3.8c-0.3-1.3-0.5-2.6-0.7-4c-0.1-1.4-0.2-2.9-0.2-4.7
	c4.2-1.4,8.4-2.5,12.6-3.2c4.2-0.7,7.9-1.1,11.3-1.1c4.6,0,8.7,0.5,12.4,1.6c3.7,1.1,6.8,2.8,9.4,5.1c2.6,2.3,4.6,5.2,6,8.8
	c1.4,3.6,2.1,7.8,2.1,12.7V136c-3.3,1-7.4,1.9-12.1,2.9c-4.7,1-9.8,1.5-15,1.5c-4.6,0-8.8-0.4-12.6-1.3c-3.8-0.8-7.1-2.2-9.8-4
	c-2.7-1.8-4.9-4.3-6.4-7.3C270.9,124.7,270.2,121,270.2,116.6z M301.3,124c0.8,0,1.9-0.1,3.4-0.3c1.5-0.2,2.6-0.4,3.3-0.5v-14.5
	h-7.5c-3.1,0-5.7,0.7-7.8,2c-2.1,1.3-3.2,3.2-3.2,5.5c0,1.8,0.4,3.1,1.2,4.2c0.8,1,1.8,1.8,3,2.3c1.2,0.5,2.5,0.9,3.8,1.1
	C298.9,123.9,300.1,124,301.3,124z"/>
<path fill="#333333" d="M332.6,104.9c0-5.3,0.7-10.1,2.2-14.5c1.5-4.4,3.7-8.1,6.6-11.3c2.9-3.1,6.5-5.6,10.7-7.3
	c4.2-1.8,9-2.6,14.5-2.6c1.8,0,3.6,0,5.3,0.1c1.7,0.1,3.3,0.3,4.9,0.5c1.6,0.3,3.3,0.7,5,1.2c1.7,0.5,3.6,1.2,5.7,2
	c0.2,3-0.1,6-0.8,8.9c-0.7,2.9-1.8,5.8-3.3,8.6c-1.5-0.5-2.8-0.9-4-1.3c-1.2-0.3-2.3-0.5-3.4-0.7c-1.1-0.2-2.1-0.3-3.1-0.3
	c-1,0-2.1-0.1-3.2-0.1c-4.2,0-7.7,1.3-10.5,3.8c-2.8,2.5-4.2,6.8-4.2,13c0,3.3,0.4,6,1.3,8.1c0.8,2.1,1.9,3.8,3.3,5.1
	c1.4,1.2,2.9,2.1,4.7,2.6c1.8,0.5,3.7,0.8,5.7,0.8c2.5,0,4.8-0.2,6.7-0.7c1.9-0.4,4.1-1.1,6.7-2.1c1.5,2.4,2.7,5,3.6,8
	c0.9,2.9,1.3,6.3,1.3,10.1c-4,1.6-7.7,2.6-11.1,3c-3.3,0.4-6.7,0.7-10,0.7c-5.6,0-10.6-0.8-14.9-2.5c-4.3-1.7-7.9-4.1-10.9-7.2
	c-2.9-3.1-5.2-6.9-6.7-11.2C333.4,115.2,332.6,110.3,332.6,104.9z"/>
<path fill="#333333" d="M390.2,116.6c0-4.3,0.9-7.9,2.8-10.7c1.8-2.8,4.2-5.1,7.1-6.7c2.9-1.7,6.1-2.8,9.6-3.5c3.5-0.7,6.9-1,10.3-1
	h8c-0.1-1.6-0.5-2.9-1.3-4c-0.8-1-1.8-1.9-3-2.4c-1.2-0.6-2.6-1-4.1-1.2c-1.5-0.2-3-0.3-4.6-0.3c-2.1,0-4.6,0.2-7.4,0.7
	c-2.8,0.5-5.7,1.3-8.7,2.3c-0.8-1.5-1.5-2.9-2-4.1c-0.6-1.2-1-2.5-1.3-3.8c-0.3-1.3-0.5-2.6-0.7-4c-0.1-1.4-0.2-2.9-0.2-4.7
	c4.2-1.4,8.4-2.5,12.6-3.2c4.2-0.7,7.9-1.1,11.3-1.1c4.6,0,8.7,0.5,12.4,1.6c3.7,1.1,6.8,2.8,9.4,5.1c2.6,2.3,4.6,5.2,6,8.8
	c1.4,3.6,2.1,7.8,2.1,12.7V136c-3.3,1-7.4,1.9-12.1,2.9c-4.7,1-9.8,1.5-15,1.5c-4.6,0-8.8-0.4-12.6-1.3c-3.8-0.8-7.1-2.2-9.8-4
	c-2.7-1.8-4.9-4.3-6.4-7.3C391,124.7,390.2,121,390.2,116.6z M421.3,124c0.8,0,1.9-0.1,3.4-0.3c1.5-0.2,2.6-0.4,3.3-0.5v-14.5h-7.5
	c-3.1,0-5.7,0.7-7.8,2c-2.1,1.3-3.2,3.2-3.2,5.5c0,1.8,0.4,3.1,1.2,4.2c0.8,1,1.8,1.8,3,2.3c1.2,0.5,2.5,0.9,3.8,1.1
	C418.9,123.9,420.2,124,421.3,124z"/>
<path fill="#333333" d="M481.5,69.4c3.9,0,7.7,0.3,11.6,1c3.9,0.7,7.4,2,10.5,4.2c3.1,2.1,5.7,5.1,7.6,9.1c2,4,3,9.2,3,15.7v39.4
	c-2.3,0.4-4.4,0.7-6.2,0.9c-1.8,0.1-3.5,0.2-4.9,0.2c-1.5,0-3.2-0.1-5-0.2c-1.8-0.1-3.9-0.4-6.2-0.9v-37c0-4.7-0.9-8-2.6-10
	c-1.8-2-4.4-3-8-3c-1,0-2,0.1-3.1,0.3c-1.1,0.2-1.8,0.4-2,0.5v49.3c-2.3,0.4-4.3,0.7-6.2,0.9c-1.8,0.1-3.5,0.2-4.9,0.2
	c-1.5,0-3.2-0.1-5-0.2c-1.8-0.1-3.9-0.4-6.2-0.9V74c3.1-1.1,6.8-2.1,11.2-3.1C469.4,69.9,474.9,69.4,481.5,69.4z"/>
<path fill="#333333" d="M518.4,104.9c0-5.3,0.7-10.1,2.2-14.5c1.5-4.4,3.7-8.1,6.6-11.3c2.9-3.1,6.5-5.6,10.7-7.3
	c4.2-1.8,9-2.6,14.5-2.6c1.8,0,3.6,0,5.3,0.1c1.7,0.1,3.3,0.3,4.9,0.5c1.6,0.3,3.3,0.7,5,1.2c1.7,0.5,3.6,1.2,5.7,2
	c0.2,3-0.1,6-0.8,8.9c-0.7,2.9-1.8,5.8-3.3,8.6c-1.5-0.5-2.8-0.9-4-1.3c-1.2-0.3-2.3-0.5-3.4-0.7c-1.1-0.2-2.1-0.3-3.1-0.3
	c-1,0-2.1-0.1-3.2-0.1c-4.2,0-7.7,1.3-10.5,3.8c-2.8,2.5-4.1,6.8-4.1,13c0,3.3,0.4,6,1.2,8.1c0.8,2.1,1.9,3.8,3.3,5.1
	c1.4,1.2,2.9,2.1,4.7,2.6c1.8,0.5,3.7,0.8,5.7,0.8c2.5,0,4.8-0.2,6.7-0.7c1.9-0.4,4.1-1.1,6.7-2.1c1.5,2.4,2.7,5,3.6,8
	c0.9,2.9,1.3,6.3,1.3,10.1c-4,1.6-7.7,2.6-11.1,3c-3.3,0.4-6.7,0.7-10,0.7c-5.6,0-10.6-0.8-14.9-2.5c-4.3-1.7-7.9-4.1-10.9-7.2
	c-2.9-3.1-5.2-6.9-6.7-11.2C519.1,115.2,518.4,110.3,518.4,104.9z"/>
<path fill="#333333" d="M596.5,111.9c1,3.6,2.7,6.2,5.1,7.6c2.4,1.5,5.6,2.2,9.6,2.2c2.6,0,5.4-0.3,8.6-0.9c3.2-0.6,6.3-1.5,9.4-2.8
	c1.2,2.3,2.3,5,3.2,8.2c0.9,3.2,1.4,6.5,1.5,9.9c-7.8,2.9-15.8,4.4-24,4.4c-6.3,0-11.8-0.9-16.3-2.6c-4.5-1.8-8.2-4.2-11.1-7.3
	c-2.9-3.1-5-6.8-6.3-11.1c-1.4-4.3-2-9-2-14.1c0-5,0.7-9.7,2.1-14.1c1.4-4.4,3.5-8.2,6.3-11.5c2.8-3.3,6.3-5.8,10.5-7.7
	c4.2-1.9,9.1-2.8,14.8-2.8c4.7,0,8.8,0.8,12.5,2.4c3.7,1.6,6.7,3.8,9.3,6.5c2.5,2.8,4.5,6.1,5.9,10c1.4,3.9,2,8.1,2,12.7
	c0,2.4-0.1,4.5-0.3,6.4c-0.2,1.9-0.4,3.4-0.6,4.7H596.5z M607,85.9c-2.8,0-5.2,0.9-7.2,2.6c-2,1.8-3.2,4.5-3.6,8.2h21.1
	c-0.2-3.1-1.1-5.6-2.8-7.7C612.8,86.9,610.3,85.9,607,85.9z"/>
<path fill="#333333" d="M676.7,96.2c2.6,0.7,5,1.6,7.2,2.6c2.2,1,4,2.3,5.5,3.9c1.5,1.6,2.7,3.5,3.6,5.8c0.9,2.3,1.3,5.1,1.3,8.3
	c0,3.3-0.7,6.5-2,9.4c-1.4,2.9-3.4,5.4-6.1,7.5c-2.7,2.1-6,3.8-9.9,5c-3.9,1.2-8.4,1.8-13.5,1.8c-4.2,0-8.1-0.3-11.7-0.9
	c-3.6-0.6-7.4-1.7-11.5-3.2c0.4-6,2.1-12,4.9-18.2c2.8,1.3,5.8,2.3,8.8,3c3.1,0.7,6.2,1,9.2,1c1.1,0,2.2,0,3.3-0.1
	c1.1-0.1,2.2-0.3,3-0.6c0.9-0.3,1.6-0.7,2.2-1.2c0.6-0.5,0.9-1.2,0.9-2.1c0-1.1-0.6-2-1.7-2.6c-1.1-0.6-2.5-1.1-4-1.5l-9-2.5
	c-4.7-1.3-8.5-3.6-11.6-6.7c-3.1-3.2-4.6-7.5-4.6-12.9c0-3.4,0.7-6.5,2.1-9.4c1.4-2.8,3.4-5.2,5.9-7.2c2.6-2,5.6-3.5,9-4.5
	c3.5-1.1,7.3-1.6,11.5-1.6c3.3,0,7,0.3,10.9,1.1c4,0.7,7.9,1.7,11.7,3c-0.2,2.8-0.7,5.8-1.7,9c-1,3.2-2.1,6-3.3,8.5
	c-2.4-1-5.2-1.8-8.6-2.6c-3.3-0.8-6.4-1.2-9.2-1.2c-4.1,0-6.2,1.1-6.2,3.4c0,1,0.5,1.7,1.4,2.2c1,0.5,2.1,1,3.3,1.3L676.7,96.2z"/>
<g>
	<path fill="#333333" d="M617.2,162.5c0.5,0,1,0,1.6,0.1c0.5,0,1.1,0.1,1.7,0.2c0.1,0.6,0.2,1.1,0.2,1.7c0.1,0.5,0.1,1,0.1,1.6
		c0,0.5,0,1-0.1,1.6c-0.1,0.5-0.1,1.1-0.2,1.7c-0.6,0.1-1.1,0.2-1.7,0.2c-0.5,0.1-1,0.1-1.6,0.1c-0.5,0-1,0-1.6-0.1
		c-0.5,0-1.1-0.1-1.7-0.2c-0.1-0.6-0.2-1.1-0.2-1.7c0-0.5-0.1-1.1-0.1-1.6c0-0.5,0-1,0.1-1.6c0.1-0.5,0.1-1.1,0.2-1.7
		c0.6-0.1,1.1-0.1,1.7-0.2C616.2,162.5,616.7,162.5,617.2,162.5z"/>
	<path fill="#333333" d="M624,159.5c0-1.5,0.2-2.9,0.6-4.2c0.4-1.3,1.1-2.3,1.9-3.2c0.8-0.9,1.9-1.6,3.1-2.1
		c1.2-0.5,2.6-0.8,4.2-0.8c0.5,0,1,0,1.5,0c0.5,0,1,0.1,1.4,0.1c0.5,0.1,0.9,0.2,1.4,0.3c0.5,0.2,1,0.3,1.6,0.6c0,0.9,0,1.7-0.2,2.6
		c-0.2,0.8-0.5,1.7-0.9,2.5c-0.4-0.2-0.8-0.3-1.2-0.4c-0.3-0.1-0.7-0.2-1-0.2c-0.3-0.1-0.6-0.1-0.9-0.1c-0.3,0-0.6,0-0.9,0
		c-1.2,0-2.2,0.4-3,1.1c-0.8,0.7-1.2,2-1.2,3.7c0,0.9,0.1,1.7,0.4,2.3c0.2,0.6,0.6,1.1,0.9,1.5c0.4,0.4,0.8,0.6,1.4,0.8
		c0.5,0.2,1.1,0.2,1.6,0.2c0.7,0,1.4-0.1,1.9-0.2c0.5-0.1,1.2-0.3,1.9-0.6c0.4,0.7,0.8,1.5,1,2.3c0.3,0.8,0.4,1.8,0.4,2.9
		c-1.2,0.5-2.2,0.7-3.2,0.9c-1,0.1-1.9,0.2-2.9,0.2c-1.6,0-3-0.2-4.3-0.7c-1.2-0.5-2.3-1.2-3.1-2.1c-0.8-0.9-1.5-2-1.9-3.2
		C624.2,162.4,624,161,624,159.5z"/>
	<path fill="#333333" d="M641.2,159.5c0-1.5,0.2-2.9,0.6-4.2c0.4-1.3,1-2.4,1.9-3.3c0.8-0.9,1.8-1.6,3-2.1c1.2-0.5,2.6-0.7,4.2-0.7
		c1.6,0,3,0.2,4.2,0.7c1.2,0.5,2.2,1.2,3.1,2.1c0.8,0.9,1.4,2,1.9,3.3c0.4,1.3,0.6,2.7,0.6,4.2c0,1.5-0.2,2.9-0.6,4.1
		c-0.4,1.2-1,2.3-1.9,3.2c-0.8,0.9-1.8,1.6-3.1,2.1c-1.2,0.5-2.6,0.7-4.2,0.7c-1.6,0-3-0.2-4.2-0.7c-1.2-0.5-2.2-1.2-3-2.1
		c-0.8-0.9-1.4-2-1.9-3.2C641.4,162.4,641.2,161.1,641.2,159.5z M654.2,159.5c0-1.6-0.3-2.9-0.8-3.7c-0.5-0.9-1.4-1.3-2.5-1.3
		c-1.1,0-1.9,0.4-2.5,1.3c-0.5,0.9-0.8,2.1-0.8,3.7c0,1.6,0.3,2.8,0.8,3.7c0.5,0.9,1.4,1.3,2.5,1.3c1.1,0,1.9-0.4,2.5-1.3
		C654,162.4,654.2,161.1,654.2,159.5z"/>
	<path fill="#333333" d="M671.9,149.3c1,0,2.1,0.1,3.1,0.2c1,0.2,1.9,0.5,2.8,1c0.7-0.3,1.4-0.6,2.3-0.9c0.9-0.3,1.9-0.4,3-0.4
		c1,0,2,0.1,3,0.3c1,0.2,2,0.6,2.8,1.2c0.8,0.6,1.5,1.5,2.1,2.6c0.5,1.1,0.8,2.6,0.8,4.5v11.3c-0.7,0.1-1.2,0.2-1.8,0.2
		c-0.5,0-1,0.1-1.4,0.1c-0.4,0-0.9,0-1.4-0.1c-0.5,0-1.1-0.1-1.8-0.2v-10.6c0-1.3-0.2-2.3-0.7-2.9c-0.5-0.6-1.2-0.9-2.2-0.9
		c-0.4,0-0.7,0-1,0.1c-0.3,0.1-0.6,0.1-0.7,0.2c0.2,0.9,0.3,1.9,0.3,3v11.1c-0.7,0.1-1.2,0.2-1.8,0.2c-0.5,0-1,0.1-1.4,0.1
		c-0.4,0-0.9,0-1.4-0.1c-0.5,0-1.1-0.1-1.8-0.2v-10.6c0-1.3-0.2-2.3-0.6-2.9c-0.4-0.6-1.2-0.9-2.2-0.9c-0.3,0-0.6,0-0.9,0.1
		c-0.3,0.1-0.5,0.1-0.6,0.2v14.2c-0.7,0.1-1.3,0.2-1.8,0.2c-0.5,0-1,0.1-1.4,0.1c-0.4,0-0.9,0-1.4-0.1c-0.5,0-1.1-0.1-1.8-0.2v-18.6
		c0.9-0.3,1.9-0.6,3.2-0.9C668.4,149.4,670,149.3,671.9,149.3z"/>
</g>
<path fill="#333333" d="M301.6,106.9c2.7,0.2,5.5,0.4,8.2,0.6v-0.6H301.6z"/>
<rect x="222.1" y="163.4" fill="#333333" width="383.3" height="4.9"/>
<path fill-rule="evenodd" clip-rule="evenodd" fill="#333333" d="M189.3,145.9c0,3.2-2.6,5.8-5.8,5.8h-12.6c-3.2,0-5.8-2.6-5.8-5.8
	V95.2c0-3.2,2.6-5.8,5.8-5.8h12.6c3.2,0,5.8,2.6,5.8,5.8V145.9z"/>
</svg>
