<?xml version="1.0" encoding="utf-8"?>
<!-- Generator: Adobe Illustrator 20.0.0, SVG Export Plug-In . SVG Version: 6.00 Build 0)  -->
<svg version="1.1" id="Calque_1" xmlns="http://www.w3.org/2000/svg" xmlns:xlink="http://www.w3.org/1999/xlink" x="0px" y="0px"
	 viewBox="0 0 393 100" enable-background="new 0 0 393 100" xml:space="preserve">
<path fill="#333333" d="M21.2,19.5h16L45,58.4c0.8,3.8,0.8,6.5,0.8,6.5H46c0,0,0.1-2.7,1-6.5l9.6-38.9h12.3l9.3,38.9
	c1,3.8,1,6.5,1,6.5h0.2c0,0,0-2.7,0.8-6.5l8.5-38.9h15.8L88.8,81.8h-17L64,50.3c-1-4-1.2-7.3-1.2-7.3h-0.2c0,0-0.3,3.3-1.2,7.3
	l-7.8,31.4H36.3L21.2,19.5z"/>
<path fill="#333333" d="M100,60c0-13.7,6.2-21.9,19.6-21.9c11.4,0,18.2,6.5,18.2,20c0,2-0.1,4.3-0.4,6H114c0.6,5.2,3.6,7.2,10,7.2
	c3.9,0,7.6-0.6,11.3-1.8l1.5,10.4c-3.6,1.5-8.8,2.6-14.5,2.6C107,82.6,100,74.6,100,60z M125.5,55.7c-0.1-4.9-2.1-6.8-5.8-6.8
	c-4.1,0-5.5,1.6-6,6.8H125.5z"/>
<path fill="#333333" d="M163.4,82.6c-4.6,0-8.2-1.6-10.7-4l-1.5,3.2H142V27.6l13.5-0.6v8.6l-0.1,5.6l0.2,0.1
	c2.7-2.2,6.1-3.2,9.5-3.2c9.9,0,16.1,6.6,16.1,22C181.2,75.7,174.5,82.6,163.4,82.6z M161.1,49.4c-2.4,0-4.4,1.1-5.6,2.8v17.1
	c1.1,1.7,2.9,2.9,5.7,2.9c3.9,0,6-1.9,6-11.8C167.2,50.8,165.3,49.4,161.1,49.4z"/>
<g>
	<rect x="191.1" y="19.5" fill="#333333" width="14.7" height="11.8"/>
	<path fill="#333333" d="M365.2,70.9V52.7c0-12.4-6.4-16.8-14.1-16.8c-6.9,0-12.4,3.7-14.8,8.5h-0.2c-2.2-6.3-6.8-8.5-11.7-8.5
		c-7.6,0-11.9,5.1-14.2,8.6h-0.2c0,0,0.1-0.6,0.1-1V42c0-3-2.2-5.1-6.3-5.1h-14.2v10.9h4.2c1.2,0,1.9,0.6,1.9,1.8v21.3h-9.9V52.7
		c0-12.4-6.4-16.8-14.1-16.8c-6.9,0-12.4,3.7-14.8,8.5h-0.2c-2.2-6.3-6.8-8.5-11.7-8.5c-7.6,0-11.9,5.1-14.2,8.6h-0.2
		c0,0,0.1-0.6,0.1-1V42c0-3-2.2-5.1-6.3-5.1h-13.3v10.9h3.2c1.2,0,1.9,0.6,1.9,1.8v21.3H206v-34h-21.2v10.9h6.1v23.1h-5.7v10.9h51.9
		V70.9h-5.7v-6.8c0-7.2,1.7-14.5,8.6-14.5c2.9,0,3.5,2.4,3.5,5.7v26.6h20.7V70.9h-5.7v-7.7c0-7.5,2.1-13.7,8.6-13.7
		c2.9,0,3.5,2.4,3.5,5.7v26.6h45.7V70.9h-5.7v-6.8c0-7.2,1.7-14.5,8.6-14.5c2.9,0,3.5,2.4,3.5,5.7v26.6h20.7V70.9h-5.7v-7.7
		c0-7.5,2.1-13.7,8.6-13.7c2.9,0,3.5,2.4,3.5,5.7v26.6h20.7V70.9H365.2z"/>
</g>
<path fill="#333333" d="M217.1,31.8c1.6,0,2.9-0.2,4.4-0.6l-0.7-3.3c-2.1,0.5-2.7,0.5-3.7,0.5c-1.2,0-2.2-0.7-2.2-2.9
	c0-2.2,1-2.9,2.2-2.9c0.3,0,0.6,0,1,0v1h3.4v-3.8c-1.5-0.4-2.8-0.6-4.4-0.6c-5,0-6.6,2.4-6.6,6.4C210.5,29.3,212.1,31.8,217.1,31.8z
	 M227.7,31.8c4.5,0,6.2-2.4,6.2-6.3c0-3.9-1.7-6.4-6.2-6.4c-4.5,0-6.2,2.4-6.2,6.4C221.5,29.3,223.2,31.8,227.7,31.8z M227.7,22.5
	c1.4,0,1.8,1,1.8,2.9c0,2-0.4,2.9-1.8,2.9c-1.4,0-1.8-1-1.8-2.9C225.9,23.4,226.3,22.5,227.7,22.5z M235.2,28.1H234v3.4h6.3v-3.4h-1
	V23c0.5-0.2,1.1-0.5,1.7-0.5c0.8,0,1.4,0.4,1.5,1.5v4.1h-1v3.4h6.1v-3.4h-1V23c0.5-0.2,1.1-0.5,1.7-0.5c0.9,0,1.5,0.5,1.5,1.7v3.9
	h-1v3.4h6.3v-3.4H254v-4.9c0-2.4-1.2-4.2-3.7-4.2c-1.5,0-2.8,0.4-4.1,1.9c-0.5-1.2-1.6-1.9-3.2-1.9c-0.4,0-0.7,0-1,0.1
	c-1,0.2-1.9,0.8-2.6,1.6h-0.1v-1.5H234v3.4h1.2V28.1z"/>
</svg>
